<?xml version="1.0" encoding="utf-8"?>
<!-- Generator: Adobe Illustrator 25.0.0, SVG Export Plug-In . SVG Version: 6.00 Build 0)  -->
<svg version="1.1" id="Capa_1" xmlns="http://www.w3.org/2000/svg" xmlns:xlink="http://www.w3.org/1999/xlink" x="0px" y="0px"
	 viewBox="0 0 132 39" style="enable-background:new 0 0 132 39;" xml:space="preserve">
<style type="text/css">
	.st0{display:none;}
	.st1{display:inline;}
	.st2{fill:#FEFEFE;}
	.st3{fill:#363636;}
	.st4{fill:#2A2727;}
	.st5{fill:#292626;}
	.st6{fill:#2C2929;}
	.st7{fill:#2B2828;}
	.st8{fill:#262324;}
	.st9{fill:#2D2A2A;}
	.st10{fill:#403F3F;}
	.st11{fill:#2B2727;}
	.st12{fill:#2F2C2C;}
	.st13{fill:#4C4949;}
	.st14{fill:#FCFCFC;}
	.st15{fill:#FCFBFC;}
	.st16{fill:#FFFFFF;}
</style>
<g class="st0">
	<g class="st1">
		<path class="st2" d="M1,39.43C1,26.62,1,13.81,1,1c42.77,0,85.54,0,128.32,0c0,12.81,0,25.62,0,38.43
			C86.54,39.43,43.77,39.43,1,39.43z M61.99,18.94c-0.1-0.11-0.2-0.22-0.29-0.34c-1.37-1.61-1.61-3.77-0.61-5.56
			c1-1.78,2.9-2.67,5.03-2.34c2.83,0.44,4.61,3.54,3.65,6.35c-0.06,0.17-0.06,0.46,0.05,0.59c1.15,1.4,1.27,1.44,3.09,1.41
			c0.19,0,0.38-0.03,0.57-0.05c2.36-0.21,4.15-1.98,4.32-4.39c0.14-1.98-1.16-4.23-3.53-4.77c-0.55-0.13-0.68-0.37-0.71-0.86
			c-0.24-4.79-4.81-9.13-10.42-7.3c-2.27,0.74-4.04,2.02-4.57,4.53c-0.03,0.14-0.21,0.28-0.35,0.35c-0.18,0.08-0.4,0.09-0.6,0.14
			c-2.83,0.63-4.88,3.06-4.9,6.13c-0.02,3.04,2.26,5.68,5.27,6.1C59.28,19.09,60.62,18.94,61.99,18.94z M71.98,38.15
			c0.01,0.05,0.03,0.1,0.04,0.15c0.92-0.24,1.89-0.37,2.75-0.74c3.63-1.59,4.26-6.62,1.17-9.09c-1.71-1.36-3.64-1.59-5.68-1.11
			c-2.99,0.7-4.74,3.8-3.94,6.77C66.94,36.42,69.19,38.18,71.98,38.15z M112.86,38.23c0.68-0.13,1.39-0.18,2.04-0.39
			c2.03-0.67,3.39-2.04,3.76-4.16c0.35-2.01-0.18-3.8-1.8-5.15c-1.42-1.19-3.08-1.53-4.9-1.32c-3.51,0.4-5.76,3.59-4.76,7.04
			C107.9,36.64,110.12,38.14,112.86,38.23z M11.73,32.77c0,1.65-0.01,3.26,0.02,4.87c0,0.1,0.29,0.29,0.45,0.29
			c1.48,0.02,2.97,0.05,4.46,0c0.82-0.03,1.68-0.1,2.46-0.35c4.22-1.37,4.41-6.44,2.05-8.62c-1.12-1.04-2.46-1.55-3.96-1.6
			c-1.67-0.05-3.35-0.02-5.03-0.02c-0.14,0-0.29,0.03-0.41,0.05c0,0.79,0,1.52,0,2.31c0.22,0,0.41,0,0.59,0
			c1.6,0.02,3.2,0.01,4.8,0.06c1.16,0.04,2.19,0.9,2.44,2.03c0.32,1.45-0.09,2.69-1.17,3.36c-1.18,0.73-2.46,0.33-3.76,0.44
			c0-0.99,0-1.89,0-2.82C13.69,32.77,12.76,32.77,11.73,32.77z M43.8,29.03c-0.4-0.34-0.73-0.68-1.12-0.93
			c-1.63-1.03-3.41-1.21-5.24-0.75c-3.82,0.97-5.06,4.79-3.59,7.77c1,2.02,2.75,2.91,4.98,3c1.56,0.07,2.99-0.31,4.32-1.09
			c0.18-0.1,0.42-0.3,0.42-0.46c0.03-1.36,0.02-2.72,0.02-4.08c-0.91,0-1.75,0-2.61,0c0,0.86,0.01,1.68-0.01,2.5
			c-0.01,0.16-0.14,0.4-0.27,0.46c-1.19,0.48-2.36,0.42-3.39-0.39c-1.06-0.83-1.24-2.02-0.99-3.24c0.5-2.38,3.3-2.79,4.92-1.68
			c0.25,0.17,0.48,0.36,0.72,0.55C42.56,30.15,43.15,29.62,43.8,29.03z M89.3,34.8c0.59-0.7,1.28-1.25,1.62-1.96
			c1.11-2.37-0.34-5.01-3-5.32c-2.03-0.24-4.09-0.17-6.16-0.24c0,0.85,0,1.58,0,2.37c0.76,0,1.49-0.01,2.23,0
			c1.01,0.02,2.01,0.02,3.01,0.11c0.84,0.08,1.3,0.67,1.3,1.5c0,0.85-0.44,1.43-1.3,1.49c-1.36,0.09-2.73,0.08-4.1,0.11
			c-0.37,0.01-0.75,0-1.12,0c0,1.73,0,3.39,0,5.05c0.97,0,1.89,0,2.9,0c0-0.95,0-1.86,0-2.81c0.4,0,0.73,0.04,1.05-0.01
			c0.51-0.07,0.8,0.15,1.06,0.56c0.41,0.66,0.86,1.29,1.3,1.93c0.09,0.13,0.23,0.33,0.35,0.33c0.97,0.03,1.94,0.02,3.02,0.02
			C90.66,36.78,89.94,35.74,89.3,34.8z M60.24,37.92c0-2.78,0-5.5,0-8.29c1.1,0,2.16,0,3.22,0c0-0.79,0-1.52,0-2.25
			c-3.17,0-6.29,0-9.41,0c0,0.77,0,1.5,0,2.27c1.08,0,2.12,0,3.24,0c0,2.78,0,5.51,0,8.26C58.29,37.92,59.22,37.92,60.24,37.92z
			 M26.52,27.37c0,3.55,0,7.03,0,10.53c0.98,0,1.92,0,2.88,0c0-3.53,0-7.01,0-10.53C28.43,27.37,27.49,27.37,26.52,27.37z
			 M50.57,37.92c0-3.55,0-7.05,0-10.55c-0.99,0-1.93,0-2.88,0c0,3.53,0,7.03,0,10.55C48.66,37.92,49.59,37.92,50.57,37.92z
			 M65.26,11.78c-1.97,0-3.55,1.54-3.64,3.51c-0.12,2.83,2.93,4.62,5.44,3.23c0.34-0.19,0.51-0.15,0.76,0.12
			c0.85,0.89,1.74,1.76,2.61,2.64c0.26,0.26,0.52,0.59,0.91,0.22c0.38-0.36,0.02-0.61-0.21-0.85c-0.84-0.86-1.67-1.72-2.54-2.54
			c-0.38-0.35-0.41-0.62-0.15-1.06C69.8,14.71,67.85,11.75,65.26,11.78z M95.2,29.59c2.8,0,5.56,0,8.33,0c0-0.76,0-1.49,0-2.2
			c-2.8,0-5.57,0-8.33,0C95.2,28.15,95.2,28.86,95.2,29.59z M95.2,33.65c2.8,0,5.56,0,8.33,0c0-0.73,0-1.42,0-2.09
			c-2.81,0-5.57,0-8.33,0C95.2,32.28,95.2,32.96,95.2,33.65z M95.13,35.71c0,0.61,0.03,1.16-0.01,1.71
			c-0.03,0.43,0.11,0.55,0.54,0.55c2.47-0.02,4.95-0.01,7.42-0.01c0.15,0,0.29-0.02,0.44-0.03c0-0.77,0-1.49,0-2.22
			C100.72,35.71,97.97,35.71,95.13,35.71z"/>
		<path class="st3" d="M61.99,18.94c-1.36,0-2.71,0.15-4.01-0.03c-3.01-0.42-5.3-3.06-5.27-6.1c0.02-3.07,2.07-5.5,4.9-6.13
			c0.2-0.04,0.42-0.05,0.6-0.14c0.14-0.07,0.32-0.21,0.35-0.35c0.53-2.51,2.3-3.79,4.57-4.53c5.61-1.83,10.18,2.52,10.42,7.3
			c0.02,0.49,0.16,0.74,0.71,0.86c2.36,0.54,3.66,2.79,3.53,4.77c-0.17,2.41-1.96,4.19-4.32,4.39c-0.19,0.02-0.38,0.04-0.57,0.05
			c-1.82,0.04-1.94-0.01-3.09-1.41c-0.1-0.13-0.11-0.41-0.05-0.59c0.97-2.81-0.81-5.91-3.65-6.35c-2.13-0.33-4.04,0.56-5.03,2.34
			c-1,1.79-0.77,3.95,0.61,5.56C61.79,18.72,61.89,18.83,61.99,18.94z"/>
		<path class="st4" d="M71.98,38.15c-2.79,0.04-5.04-1.73-5.66-4.02c-0.8-2.97,0.94-6.07,3.94-6.77c2.05-0.48,3.98-0.25,5.68,1.11
			c3.09,2.46,2.46,7.5-1.17,9.09c-0.86,0.38-1.83,0.5-2.75,0.74C72.01,38.25,71.99,38.2,71.98,38.15z M74.95,32.72
			c0.02-1.84-1.18-3.15-2.9-3.17c-1.69-0.01-2.93,1.27-2.94,3.07c-0.01,1.78,1.18,3.1,2.84,3.12
			C73.68,35.77,74.92,34.51,74.95,32.72z"/>
		<path class="st5" d="M112.86,38.23c-2.75-0.09-4.97-1.59-5.66-3.99c-1-3.45,1.26-6.64,4.76-7.04c1.82-0.21,3.48,0.14,4.9,1.32
			c1.62,1.35,2.15,3.15,1.8,5.15c-0.37,2.12-1.73,3.5-3.76,4.16C114.25,38.05,113.55,38.1,112.86,38.23z M115.79,32.68
			c0-1.8-1.2-3.1-2.88-3.13c-1.68-0.03-3.01,1.36-2.99,3.12c0.02,1.74,1.28,3.06,2.92,3.07C114.55,35.75,115.79,34.46,115.79,32.68z
			"/>
		<path class="st6" d="M11.73,32.77c1.03,0,1.96,0,2.94,0c0,0.93,0,1.83,0,2.82c1.29-0.11,2.57,0.29,3.76-0.44
			c1.08-0.67,1.49-1.91,1.17-3.36c-0.25-1.14-1.28-2-2.44-2.03c-1.6-0.05-3.2-0.04-4.8-0.06c-0.19,0-0.37,0-0.59,0
			c0-0.79,0-1.52,0-2.31c0.13-0.01,0.27-0.05,0.41-0.05c1.68,0,3.35-0.03,5.03,0.02c1.5,0.04,2.84,0.56,3.96,1.6
			c2.36,2.18,2.17,7.25-2.05,8.62c-0.78,0.25-1.63,0.32-2.46,0.35c-1.48,0.05-2.97,0.02-4.46,0c-0.16,0-0.45-0.19-0.45-0.29
			C11.72,36.02,11.73,34.41,11.73,32.77z"/>
		<path class="st7" d="M43.8,29.03c-0.65,0.59-1.24,1.12-1.85,1.67c-0.25-0.19-0.48-0.38-0.72-0.55c-1.62-1.12-4.42-0.7-4.92,1.68
			c-0.26,1.22-0.07,2.41,0.99,3.24c1.02,0.81,2.19,0.87,3.39,0.39c0.14-0.05,0.27-0.3,0.27-0.46c0.03-0.82,0.01-1.63,0.01-2.5
			c0.86,0,1.7,0,2.61,0c0,1.36,0.01,2.72-0.02,4.08c0,0.16-0.24,0.36-0.42,0.46c-1.33,0.78-2.76,1.15-4.32,1.09
			c-2.23-0.1-3.98-0.99-4.98-3c-1.47-2.98-0.24-6.8,3.59-7.77c1.83-0.47,3.61-0.28,5.24,0.75C43.06,28.35,43.39,28.69,43.8,29.03z"
			/>
		<path class="st4" d="M89.3,34.8c0.64,0.94,1.36,1.98,2.15,3.13c-1.07,0-2.05,0.01-3.02-0.02c-0.12,0-0.26-0.2-0.35-0.33
			c-0.44-0.64-0.89-1.27-1.3-1.93c-0.25-0.41-0.55-0.64-1.06-0.56c-0.32,0.05-0.64,0.01-1.05,0.01c0,0.95,0,1.86,0,2.81
			c-1,0-1.93,0-2.9,0c0-1.66,0-3.32,0-5.05c0.37,0,0.75,0.01,1.12,0c1.37-0.03,2.74-0.02,4.1-0.11c0.87-0.06,1.3-0.64,1.3-1.49
			c0-0.83-0.46-1.42-1.3-1.5c-1-0.09-2.01-0.09-3.01-0.11c-0.74-0.02-1.47,0-2.23,0c0-0.79,0-1.52,0-2.37
			c2.08,0.07,4.14,0.01,6.16,0.24c2.66,0.31,4.11,2.95,3,5.32C90.58,33.55,89.89,34.1,89.3,34.8z"/>
		<path class="st8" d="M60.24,37.92c-1.02,0-1.94,0-2.95,0c0-2.75,0-5.49,0-8.26c-1.12,0-2.17,0-3.24,0c0-0.77,0-1.5,0-2.27
			c3.12,0,6.25,0,9.41,0c0,0.73,0,1.45,0,2.25c-1.06,0-2.12,0-3.22,0C60.24,32.41,60.24,35.14,60.24,37.92z"/>
		<path class="st9" d="M26.52,27.37c0.96,0,1.91,0,2.88,0c0,3.51,0,7,0,10.53c-0.96,0-1.9,0-2.88,0
			C26.52,34.4,26.52,30.91,26.52,27.37z"/>
		<path class="st7" d="M50.57,37.92c-0.98,0-1.91,0-2.88,0c0-3.52,0-7.02,0-10.55c0.95,0,1.89,0,2.88,0
			C50.57,30.87,50.57,34.37,50.57,37.92z"/>
		<path class="st10" d="M65.26,11.78c2.6-0.03,4.55,2.93,3.18,5.27c-0.26,0.44-0.22,0.71,0.15,1.06c0.88,0.82,1.7,1.68,2.54,2.54
			c0.23,0.23,0.59,0.48,0.21,0.85c-0.38,0.37-0.65,0.04-0.91-0.22c-0.87-0.88-1.75-1.74-2.61-2.64c-0.25-0.26-0.42-0.3-0.76-0.12
			c-2.52,1.39-5.56-0.4-5.44-3.23C61.7,13.32,63.29,11.78,65.26,11.78z M65.26,18.02c1.52,0,2.68-1.15,2.68-2.64
			c0-1.46-1.24-2.66-2.71-2.65c-1.45,0.01-2.64,1.21-2.64,2.65C62.58,16.88,63.74,18.03,65.26,18.02z"/>
		<path class="st11" d="M95.2,29.59c0-0.73,0-1.44,0-2.2c2.76,0,5.53,0,8.33,0c0,0.71,0,1.44,0,2.2
			C100.76,29.59,97.99,29.59,95.2,29.59z"/>
		<path class="st12" d="M95.2,33.65c0-0.69,0-1.37,0-2.09c2.76,0,5.52,0,8.33,0c0,0.68,0,1.37,0,2.09
			C100.76,33.65,97.99,33.65,95.2,33.65z"/>
		<path class="st13" d="M95.13,35.71c2.84,0,5.59,0,8.4,0c0,0.73,0,1.45,0,2.22c-0.15,0.01-0.29,0.03-0.44,0.03
			c-2.47,0-4.95-0.01-7.42,0.01c-0.43,0-0.57-0.12-0.54-0.55C95.16,36.87,95.13,36.32,95.13,35.71z M99.35,37.82
			c0.89,0,1.79,0,2.68,0c1.38,0,1.36,0,1.38-1.36c0.01-0.5-0.18-0.59-0.63-0.59c-1.99,0.02-3.99,0.01-5.98,0.01
			c-1.45,0-1.44,0-1.43,1.43c0,0.39,0.1,0.53,0.51,0.52C97.03,37.81,98.19,37.82,99.35,37.82z"/>
		<path class="st14" d="M74.95,32.72c-0.02,1.79-1.27,3.05-3,3.02c-1.66-0.02-2.86-1.34-2.84-3.12c0.01-1.8,1.25-3.08,2.94-3.07
			C73.77,29.56,74.97,30.87,74.95,32.72z"/>
		<path class="st15" d="M115.79,32.68c0,1.78-1.24,3.07-2.96,3.06c-1.64-0.01-2.89-1.33-2.92-3.07c-0.02-1.75,1.31-3.15,2.99-3.12
			C114.59,29.58,115.79,30.88,115.79,32.68z"/>
		<path class="st14" d="M65.26,18.02c-1.52,0-2.68-1.14-2.68-2.64c0-1.44,1.19-2.64,2.64-2.65c1.47-0.02,2.71,1.19,2.71,2.65
			C67.93,16.88,66.78,18.02,65.26,18.02z"/>
		<path class="st4" d="M99.35,37.82c-1.16,0-2.32-0.02-3.48,0.01c-0.41,0.01-0.51-0.14-0.51-0.52c-0.01-1.43-0.02-1.43,1.43-1.43
			c1.99,0,3.99,0.01,5.98-0.01c0.45,0,0.64,0.09,0.63,0.59c-0.02,1.36,0,1.36-1.38,1.36C101.13,37.82,100.24,37.82,99.35,37.82z"/>
	</g>
</g>
<g class="st0">
	<g class="st1">
		<path class="st16" d="M130.16,38.71c-42.77,0-85.54,0-128.32,0c0-12.81,0-25.62,0-38.43c42.77,0,85.54,0,128.32,0
			C130.16,13.1,130.16,25.9,130.16,38.71z M62.6,18.39c0.02-0.06,0.03-0.12,0.05-0.18c-0.12-0.14-0.24-0.28-0.35-0.43
			c-2.05-2.53-1.14-6.38,1.82-7.52c1.9-0.73,3.69-0.47,5.18,0.97c1.46,1.42,1.79,3.17,1.19,5.09c-0.09,0.29-0.08,0.47,0.13,0.7
			c1.28,1.35,1.34,1.39,3.15,1.29c0.15-0.01,0.3-0.03,0.45-0.05c2.34-0.22,4.07-1.99,4.27-4.38c0.18-2.05-1.33-4.16-3.46-4.71
			c-0.6-0.16-0.77-0.43-0.8-0.99c-0.27-4.71-4.78-9.03-10.4-7.2c-2.25,0.73-4.01,2-4.54,4.49c-0.03,0.15-0.23,0.3-0.39,0.38
			c-0.18,0.09-0.4,0.09-0.6,0.14c-2.8,0.64-4.91,3.19-4.86,6.06c0.06,3.1,2.12,5.54,4.91,6.06C59.74,18.36,61.18,18.3,62.6,18.39z
			 M72.77,37.5c0.67-0.12,1.35-0.18,1.99-0.39c1.98-0.63,3.31-1.95,3.74-3.99c0.44-2.11-0.13-3.95-1.83-5.36
			c-1.39-1.15-2.99-1.44-4.75-1.28c-3.47,0.31-5.75,3.58-4.85,6.93C67.67,35.69,69.91,37.47,72.77,37.5z M119.47,31.96
			c0-1.3-0.34-2.48-1.21-3.46c-1.69-1.92-3.85-2.4-6.27-1.86c-2.05,0.46-3.48,1.71-4.06,3.74c-0.57,2.01-0.18,3.9,1.36,5.39
			c1.58,1.52,3.52,1.92,5.64,1.52C117.65,36.77,119.46,34.65,119.47,31.96z M12.47,32.06c0,1.65-0.01,3.24,0.02,4.83
			c0,0.11,0.3,0.3,0.46,0.3c1.88-0.01,3.77-0.01,5.65-0.08c1.24-0.04,2.33-0.57,3.22-1.41c1.58-1.52,1.93-3.4,1.31-5.44
			c-0.63-2.07-2.2-3.18-4.24-3.47c-1.53-0.22-3.11-0.13-4.67-0.16c-0.56-0.01-1.31-0.15-1.63,0.14c-0.28,0.26-0.07,1.03-0.12,1.58
			c-0.04,0.46,0.1,0.62,0.59,0.62c1.6-0.01,3.2-0.01,4.79,0.05c1.24,0.05,2.28,0.96,2.51,2.11c0.3,1.51-0.2,2.75-1.36,3.38
			c-1.15,0.62-2.36,0.25-3.63,0.35c0-1,0-1.9,0-2.81C14.39,32.06,13.48,32.06,12.47,32.06z M41.71,31.78c0,0.87,0.02,1.66-0.02,2.46
			c-0.01,0.19-0.19,0.51-0.34,0.53c-0.68,0.11-1.41,0.29-2.06,0.16c-1.55-0.29-2.25-1.32-2.33-3.1c-0.08-1.79,1.45-3.16,3.24-2.99
			c0.96,0.09,1.73,0.49,2.46,1.14c0.61-0.56,1.21-1.09,1.86-1.69c-0.21-0.18-0.36-0.3-0.51-0.42c-1.72-1.47-3.73-1.74-5.84-1.22
			c-2.19,0.54-3.69,1.92-4.08,4.18c-0.38,2.16,0.19,4.1,2.05,5.44c2.09,1.5,4.36,1.42,6.67,0.56c1.49-0.56,1.48-0.58,1.48-2.16
			c0-0.96,0-1.93,0-2.91C43.41,31.78,42.6,31.78,41.71,31.78z M89.9,33.92c0.21-0.14,0.35-0.23,0.49-0.32
			c1.8-1.2,2.16-3.81,0.75-5.45c-0.9-1.05-2.13-1.44-3.46-1.49c-1.63-0.06-3.27-0.02-4.91-0.02c-0.09,0-0.18,0.03-0.27,0.05
			c0,0.74,0,1.45,0,2.23c0.37,0,0.71-0.01,1.04,0c1.39,0.03,2.78,0.01,4.16,0.11c0.9,0.07,1.34,0.67,1.33,1.54
			c-0.01,0.84-0.45,1.42-1.33,1.48c-1.46,0.09-2.92,0.08-4.39,0.11c-0.26,0.01-0.52,0-0.84,0c0,1.63-0.01,3.18,0.02,4.73
			c0,0.11,0.26,0.3,0.4,0.31c0.68,0.03,1.37,0,2.05,0.02c0.32,0.01,0.44-0.11,0.43-0.43c-0.02-0.65-0.01-1.29,0-1.94
			c0-0.14,0.02-0.33,0.11-0.42c0.23-0.23,1.65-0.02,1.84,0.26c0.49,0.7,0.96,1.41,1.45,2.11c0.11,0.16,0.29,0.38,0.44,0.38
			c0.94,0.04,1.88,0.02,2.93,0.02C91.36,36.05,90.65,35.01,89.9,33.92z M58.02,37.21c0.83,0,1.59-0.03,2.34,0.01
			c0.5,0.03,0.6-0.17,0.59-0.62c-0.02-2.39-0.01-4.78-0.01-7.18c0-0.15,0.02-0.29,0.03-0.52c1.08,0,2.13,0,3.2,0
			c0-0.79,0-1.5,0-2.23c-3.16,0-6.28,0-9.4,0c0,0.76,0,1.48,0,2.24c0.87,0,1.71,0.04,2.54-0.01c0.61-0.04,0.73,0.18,0.72,0.74
			c-0.03,2.3-0.01,4.6-0.01,6.89C58.02,36.74,58.02,36.95,58.02,37.21z M48.48,26.66c-0.05,0.06-0.07,0.07-0.07,0.09
			c-0.01,3.38-0.02,6.75-0.01,10.13c0,0.11,0.18,0.31,0.28,0.31c0.87,0.02,1.74,0.01,2.62,0.01c0-3.56,0-7.04,0-10.55
			C50.33,26.66,49.41,26.66,48.48,26.66z M27.3,26.67c-0.03,0.07-0.06,0.1-0.06,0.13c-0.01,3.34-0.01,6.69-0.02,10.03
			c0,0.31,0.14,0.39,0.42,0.38c0.63-0.01,1.26-0.04,1.88,0.01c0.53,0.04,0.63-0.17,0.63-0.65c-0.02-3.12-0.01-6.23-0.01-9.35
			c0-0.18,0-0.37,0-0.56C29.13,26.67,28.21,26.67,27.3,26.67z M65.97,11.09c-1.92,0.01-3.55,1.59-3.6,3.49
			c-0.07,2.76,2.84,4.57,5.31,3.26c0.45-0.24,0.67-0.17,1,0.17c0.83,0.89,1.71,1.73,2.57,2.6c0.24,0.24,0.49,0.47,0.82,0.15
			c0.33-0.32,0.05-0.55-0.16-0.77c-0.84-0.86-1.67-1.72-2.54-2.54c-0.39-0.37-0.49-0.63-0.21-1.15
			C70.42,13.94,68.65,11.08,65.97,11.09z M95.94,28.88c2.8,0,5.53,0,8.3,0c0-0.75,0-1.47,0-2.21c-2.78,0-5.52,0-8.3,0
			C95.94,27.41,95.94,28.12,95.94,28.88z M95.9,35.03c0,0.56,0.03,1.09-0.01,1.61c-0.03,0.44,0.11,0.59,0.57,0.58
			c1.86-0.03,3.72-0.01,5.59-0.01c0.72,0,1.44,0,2.19,0c0-0.76,0-1.46,0-2.18C101.45,35.03,98.71,35.03,95.9,35.03z M95.93,32.91
			c2.77,0,5.53,0,8.31,0c0-0.7,0-1.37,0-2.06c-2.79,0-5.53,0-8.31,0C95.93,31.53,95.93,32.17,95.93,32.91z"/>
		<path d="M62.6,18.39c-1.42-0.09-2.87-0.03-4.25-0.29c-2.79-0.52-4.85-2.96-4.91-6.06c-0.05-2.87,2.06-5.42,4.86-6.06
			c0.2-0.05,0.42-0.05,0.6-0.14c0.16-0.08,0.36-0.23,0.39-0.38c0.53-2.49,2.3-3.76,4.54-4.49c5.61-1.83,10.12,2.5,10.4,7.2
			c0.03,0.56,0.2,0.83,0.8,0.99c2.13,0.55,3.63,2.66,3.46,4.71c-0.21,2.39-1.93,4.16-4.27,4.38c-0.15,0.01-0.3,0.04-0.45,0.05
			c-1.81,0.1-1.87,0.07-3.15-1.29c-0.22-0.23-0.23-0.4-0.13-0.7c0.6-1.92,0.27-3.66-1.19-5.09c-1.49-1.45-3.27-1.71-5.18-0.97
			c-2.96,1.14-3.87,4.99-1.82,7.52c0.12,0.14,0.24,0.28,0.35,0.43C62.64,18.27,62.62,18.33,62.6,18.39z"/>
		<path d="M72.77,37.5c-2.86-0.03-5.1-1.82-5.71-4.08c-0.9-3.35,1.38-6.62,4.85-6.93c1.76-0.16,3.36,0.13,4.75,1.28
			c1.7,1.41,2.27,3.25,1.83,5.36c-0.43,2.04-1.76,3.36-3.74,3.99C74.12,37.32,73.44,37.38,72.77,37.5z M69.82,31.95
			c0,1.79,1.23,3.09,2.94,3.09c1.7,0,2.93-1.29,2.93-3.09c0-1.8-1.2-3.09-2.91-3.11C71.07,28.81,69.82,30.12,69.82,31.95z"/>
		<path d="M119.47,31.96c-0.01,2.69-1.82,4.81-4.54,5.33c-2.13,0.4-4.07,0-5.64-1.52c-1.54-1.49-1.93-3.37-1.36-5.39
			c0.57-2.03,2.01-3.28,4.06-3.74c2.42-0.55,4.57-0.06,6.27,1.86C119.13,29.48,119.48,30.66,119.47,31.96z M116.53,31.92
			c0-1.77-1.27-3.11-2.94-3.09c-1.68,0.02-2.96,1.37-2.95,3.11c0.01,1.76,1.29,3.1,2.97,3.09
			C115.31,35.03,116.53,33.74,116.53,31.92z"/>
		<path d="M12.47,32.06c1.01,0,1.91,0,2.9,0c0,0.92,0,1.82,0,2.81c1.27-0.1,2.48,0.27,3.63-0.35c1.16-0.63,1.66-1.87,1.36-3.38
			c-0.23-1.15-1.27-2.07-2.51-2.11c-1.6-0.06-3.19-0.07-4.79-0.05c-0.49,0-0.63-0.16-0.59-0.62c0.05-0.54-0.16-1.32,0.12-1.58
			c0.32-0.29,1.07-0.15,1.63-0.14c1.56,0.03,3.13-0.06,4.67,0.16c2.05,0.29,3.62,1.4,4.24,3.47c0.62,2.04,0.27,3.93-1.31,5.44
			c-0.88,0.85-1.97,1.37-3.22,1.41c-1.88,0.06-3.76,0.07-5.65,0.08c-0.16,0-0.45-0.19-0.46-0.3C12.46,35.31,12.47,33.71,12.47,32.06
			z"/>
		<path d="M41.71,31.78c0.89,0,1.7,0,2.59,0c0,0.98,0,1.94,0,2.91c0,1.58,0.01,1.6-1.48,2.16c-2.3,0.86-4.58,0.93-6.67-0.56
			c-1.87-1.34-2.43-3.28-2.05-5.44c0.4-2.26,1.89-3.65,4.08-4.18c2.11-0.52,4.11-0.25,5.84,1.22c0.14,0.12,0.29,0.24,0.51,0.42
			c-0.66,0.59-1.25,1.13-1.86,1.69c-0.73-0.65-1.49-1.05-2.46-1.14c-1.78-0.16-3.31,1.2-3.24,2.99c0.08,1.79,0.78,2.81,2.33,3.1
			c0.66,0.12,1.38-0.06,2.06-0.16c0.14-0.02,0.33-0.34,0.34-0.53C41.73,33.45,41.71,32.65,41.71,31.78z"/>
		<path d="M89.9,33.92c0.75,1.1,1.46,2.14,2.25,3.29c-1.06,0-1.99,0.02-2.93-0.02c-0.15-0.01-0.33-0.22-0.44-0.38
			c-0.49-0.7-0.96-1.41-1.45-2.11c-0.2-0.28-1.61-0.49-1.84-0.26c-0.09,0.09-0.11,0.27-0.11,0.42c-0.01,0.65-0.02,1.29,0,1.94
			c0.01,0.32-0.11,0.44-0.43,0.43c-0.68-0.02-1.37,0.01-2.05-0.02c-0.14-0.01-0.4-0.2-0.4-0.31c-0.03-1.55-0.02-3.1-0.02-4.73
			c0.32,0,0.58,0,0.84,0c1.46-0.03,2.93-0.01,4.39-0.11c0.88-0.06,1.32-0.64,1.33-1.48c0.01-0.87-0.43-1.47-1.33-1.54
			c-1.38-0.1-2.77-0.08-4.16-0.11c-0.34-0.01-0.67,0-1.04,0c0-0.78,0-1.49,0-2.23c0.09-0.02,0.18-0.05,0.27-0.05
			c1.64,0,3.27-0.04,4.91,0.02c1.32,0.05,2.55,0.44,3.46,1.49c1.42,1.64,1.05,4.25-0.75,5.45C90.25,33.69,90.11,33.78,89.9,33.92z"
			/>
		<path d="M58.02,37.21c0-0.27,0-0.47,0-0.67c0-2.3-0.02-4.6,0.01-6.89c0.01-0.56-0.11-0.78-0.72-0.74
			c-0.83,0.05-1.67,0.01-2.54,0.01c0-0.76,0-1.47,0-2.24c3.12,0,6.24,0,9.4,0c0,0.72,0,1.43,0,2.23c-1.07,0-2.12,0-3.2,0
			c-0.01,0.22-0.03,0.37-0.03,0.52c0,2.39-0.01,4.79,0.01,7.18c0,0.45-0.1,0.65-0.59,0.62C59.61,37.18,58.85,37.21,58.02,37.21z"/>
		<path d="M48.48,26.66c0.93,0,1.85,0,2.82,0c0,3.51,0,6.99,0,10.55c-0.88,0-1.75,0.01-2.62-0.01c-0.1,0-0.28-0.2-0.28-0.31
			c-0.01-3.38,0-6.75,0.01-10.13C48.41,26.74,48.43,26.72,48.48,26.66z"/>
		<path d="M27.3,26.67c0.91,0,1.83,0,2.84,0c0,0.19,0,0.38,0,0.56c0,3.12-0.01,6.23,0.01,9.35c0,0.48-0.1,0.69-0.63,0.65
			c-0.62-0.05-1.26-0.02-1.88-0.01c-0.27,0-0.42-0.07-0.42-0.38c0.01-3.34,0.01-6.69,0.02-10.03C27.24,26.76,27.27,26.73,27.3,26.67
			z"/>
		<path d="M65.97,11.09c2.68-0.01,4.45,2.85,3.18,5.21c-0.28,0.52-0.18,0.79,0.21,1.15c0.87,0.82,1.7,1.69,2.54,2.54
			c0.21,0.21,0.49,0.45,0.16,0.77c-0.33,0.32-0.58,0.09-0.82-0.15c-0.86-0.86-1.73-1.71-2.57-2.6c-0.32-0.34-0.54-0.41-1-0.17
			c-2.46,1.31-5.38-0.5-5.31-3.26C62.42,12.68,64.05,11.1,65.97,11.09z M65.99,17.33c1.51,0,2.69-1.17,2.69-2.66
			c0-1.46-1.23-2.67-2.71-2.67c-1.48,0-2.69,1.22-2.69,2.69C63.29,16.19,64.47,17.34,65.99,17.33z"/>
		<path d="M95.94,28.88c0-0.76,0-1.47,0-2.21c2.78,0,5.53,0,8.3,0c0,0.74,0,1.47,0,2.21C101.47,28.88,98.74,28.88,95.94,28.88z"/>
		<path d="M95.9,35.03c2.8,0,5.55,0,8.34,0c0,0.72,0,1.43,0,2.18c-0.75,0-1.47,0-2.19,0c-1.86,0-3.72-0.02-5.59,0.01
			c-0.46,0.01-0.6-0.14-0.57-0.58C95.93,36.12,95.9,35.59,95.9,35.03z"/>
		<path d="M95.93,32.91c0-0.74,0-1.38,0-2.06c2.78,0,5.52,0,8.31,0c0,0.69,0,1.36,0,2.06C101.46,32.91,98.7,32.91,95.93,32.91z"/>
		<path class="st16" d="M69.82,31.95c0-1.83,1.25-3.14,2.96-3.12c1.7,0.02,2.91,1.31,2.91,3.11c0,1.8-1.22,3.1-2.93,3.09
			C71.05,35.03,69.82,33.74,69.82,31.95z"/>
		<path class="st16" d="M116.53,31.92c0,1.81-1.22,3.1-2.92,3.11c-1.68,0.01-2.96-1.33-2.97-3.09c-0.01-1.74,1.27-3.09,2.95-3.11
			C115.25,28.81,116.53,30.15,116.53,31.92z"/>
		<path class="st16" d="M65.99,17.33c-1.52,0-2.7-1.15-2.7-2.64c0-1.47,1.21-2.69,2.69-2.69c1.48,0,2.7,1.21,2.71,2.67
			C68.68,16.17,67.5,17.33,65.99,17.33z"/>
	</g>
</g>
<g>
	<g>
		<path class="st16" d="M1.84,39.29c0-12.81,0-25.62,0-38.43c42.77,0,85.54,0,128.32,0c0,12.81,0,25.62,0,38.43
			C87.39,39.29,44.61,39.29,1.84,39.29z M62.83,18.81c-0.1-0.11-0.2-0.22-0.29-0.34c-1.37-1.61-1.61-3.77-0.61-5.56
			c1-1.78,2.9-2.67,5.03-2.34c2.83,0.44,4.61,3.54,3.65,6.35c-0.06,0.17-0.06,0.46,0.05,0.59c1.15,1.4,1.27,1.44,3.09,1.41
			c0.19,0,0.38-0.03,0.57-0.05c2.36-0.21,4.15-1.98,4.32-4.39c0.14-1.98-1.16-4.23-3.53-4.77c-0.55-0.12-0.68-0.37-0.71-0.86
			c-0.24-4.79-4.81-9.13-10.42-7.3c-2.27,0.74-4.04,2.02-4.57,4.53c-0.03,0.14-0.21,0.28-0.35,0.35c-0.18,0.08-0.4,0.09-0.6,0.14
			c-2.83,0.63-4.88,3.06-4.9,6.13c-0.02,3.04,2.26,5.68,5.27,6.1C60.12,18.96,61.47,18.81,62.83,18.81z M72.82,38.01
			c0.01,0.05,0.03,0.1,0.04,0.15c0.92-0.24,1.89-0.37,2.75-0.74c3.63-1.59,4.26-6.62,1.17-9.09c-1.71-1.36-3.64-1.59-5.68-1.11
			c-2.99,0.7-4.74,3.8-3.94,6.77C67.78,36.28,70.03,38.05,72.82,38.01z M113.71,38.1c0.68-0.13,1.39-0.18,2.04-0.39
			c2.03-0.67,3.39-2.04,3.76-4.16c0.35-2.01-0.18-3.8-1.8-5.15c-1.42-1.19-3.08-1.53-4.9-1.32c-3.51,0.4-5.76,3.59-4.76,7.04
			C108.74,36.51,110.96,38.01,113.71,38.1z M12.57,32.63c0,1.65-0.01,3.26,0.02,4.87c0,0.1,0.29,0.29,0.45,0.29
			c1.48,0.02,2.97,0.05,4.46,0c0.82-0.03,1.68-0.1,2.46-0.35c4.22-1.37,4.41-6.44,2.05-8.62c-1.12-1.04-2.46-1.55-3.96-1.6
			c-1.67-0.05-3.35-0.02-5.03-0.02c-0.14,0-0.29,0.03-0.41,0.05c0,0.79,0,1.52,0,2.31c0.22,0,0.41,0,0.59,0
			c1.6,0.02,3.2,0.01,4.8,0.06c1.16,0.04,2.19,0.9,2.44,2.03c0.32,1.45-0.09,2.69-1.17,3.36c-1.18,0.73-2.46,0.33-3.76,0.44
			c0-0.99,0-1.89,0-2.82C14.53,32.63,13.6,32.63,12.57,32.63z M44.64,28.9c-0.4-0.34-0.73-0.68-1.12-0.93
			c-1.63-1.03-3.41-1.21-5.24-0.75c-3.82,0.97-5.06,4.79-3.59,7.77c1,2.02,2.75,2.91,4.98,3c1.56,0.07,2.99-0.31,4.32-1.09
			c0.18-0.1,0.42-0.3,0.42-0.46c0.03-1.36,0.02-2.72,0.02-4.08c-0.91,0-1.75,0-2.61,0c0,0.86,0.01,1.68-0.01,2.5
			c-0.01,0.16-0.14,0.4-0.27,0.46c-1.19,0.48-2.36,0.42-3.39-0.39c-1.06-0.83-1.24-2.02-0.99-3.24c0.5-2.38,3.3-2.79,4.92-1.68
			c0.25,0.17,0.48,0.36,0.72,0.55C43.4,30.01,43.99,29.48,44.64,28.9z M90.14,34.67c0.59-0.7,1.28-1.25,1.62-1.96
			c1.11-2.37-0.34-5.01-3-5.32c-2.03-0.24-4.09-0.17-6.16-0.24c0,0.85,0,1.58,0,2.37c0.76,0,1.49-0.01,2.23,0
			c1.01,0.02,2.01,0.02,3.01,0.11c0.84,0.08,1.3,0.67,1.3,1.5c0,0.85-0.44,1.43-1.3,1.49c-1.36,0.09-2.73,0.08-4.1,0.11
			c-0.37,0.01-0.75,0-1.12,0c0,1.73,0,3.39,0,5.05c0.97,0,1.89,0,2.9,0c0-0.95,0-1.86,0-2.81c0.4,0,0.73,0.04,1.05-0.01
			c0.51-0.07,0.8,0.15,1.06,0.56c0.41,0.66,0.86,1.29,1.3,1.93c0.09,0.13,0.23,0.33,0.35,0.33c0.97,0.03,1.94,0.02,3.02,0.02
			C91.5,36.65,90.79,35.6,90.14,34.67z M61.08,37.78c0-2.78,0-5.5,0-8.29c1.1,0,2.16,0,3.22,0c0-0.79,0-1.52,0-2.25
			c-3.17,0-6.29,0-9.41,0c0,0.77,0,1.5,0,2.27c1.08,0,2.12,0,3.24,0c0,2.78,0,5.51,0,8.26C59.13,37.78,60.06,37.78,61.08,37.78z
			 M27.37,27.23c0,3.55,0,7.03,0,10.53c0.98,0,1.92,0,2.88,0c0-3.53,0-7.01,0-10.53C29.27,27.23,28.33,27.23,27.37,27.23z
			 M51.41,37.79c0-3.55,0-7.05,0-10.55c-0.99,0-1.93,0-2.88,0c0,3.53,0,7.03,0,10.55C49.51,37.79,50.43,37.79,51.41,37.79z
			 M66.1,11.65c-1.97,0-3.55,1.54-3.64,3.51c-0.12,2.83,2.93,4.62,5.44,3.23c0.34-0.19,0.51-0.15,0.76,0.12
			c0.85,0.89,1.74,1.76,2.61,2.64c0.26,0.26,0.52,0.59,0.91,0.22c0.38-0.36,0.02-0.61-0.21-0.85c-0.84-0.86-1.67-1.72-2.54-2.54
			c-0.38-0.35-0.41-0.62-0.15-1.06C70.64,14.58,68.7,11.62,66.1,11.65z M96.04,29.46c2.8,0,5.56,0,8.33,0c0-0.76,0-1.49,0-2.2
			c-2.8,0-5.57,0-8.33,0C96.04,28.01,96.04,28.73,96.04,29.46z M96.04,33.52c2.8,0,5.56,0,8.33,0c0-0.73,0-1.42,0-2.09
			c-2.81,0-5.57,0-8.33,0C96.04,32.15,96.04,32.83,96.04,33.52z M95.97,35.58c0,0.61,0.03,1.16-0.01,1.71
			c-0.03,0.43,0.11,0.55,0.54,0.55c2.47-0.02,4.95-0.01,7.42-0.01c0.15,0,0.29-0.02,0.44-0.03c0-0.77,0-1.49,0-2.22
			C101.56,35.58,98.81,35.58,95.97,35.58z"/>
		<path class="st16" d="M62.83,18.81c-1.36,0-2.71,0.15-4.01-0.03c-3.01-0.42-5.3-3.06-5.27-6.1c0.02-3.07,2.07-5.5,4.9-6.13
			c0.2-0.04,0.42-0.05,0.6-0.14c0.14-0.07,0.32-0.21,0.35-0.35c0.53-2.51,2.3-3.79,4.57-4.53c5.61-1.83,10.18,2.52,10.42,7.3
			c0.02,0.49,0.16,0.74,0.71,0.86c2.36,0.54,3.66,2.79,3.53,4.77c-0.17,2.41-1.96,4.19-4.32,4.39c-0.19,0.02-0.38,0.04-0.57,0.05
			c-1.82,0.04-1.94-0.01-3.09-1.41c-0.1-0.13-0.11-0.41-0.05-0.59c0.97-2.81-0.81-5.91-3.65-6.35c-2.13-0.33-4.04,0.56-5.03,2.34
			c-1,1.79-0.77,3.95,0.61,5.56C62.63,18.58,62.73,18.69,62.83,18.81z"/>
		<path class="st16" d="M72.82,38.01c-2.79,0.04-5.04-1.73-5.66-4.02c-0.8-2.97,0.94-6.07,3.94-6.77c2.05-0.48,3.98-0.25,5.68,1.11
			c3.09,2.46,2.46,7.5-1.17,9.09c-0.86,0.38-1.83,0.5-2.75,0.74C72.85,38.11,72.84,38.06,72.82,38.01z M75.79,32.58
			c0.02-1.84-1.18-3.15-2.9-3.17c-1.69-0.01-2.93,1.27-2.94,3.07c-0.01,1.78,1.18,3.1,2.84,3.12
			C74.52,35.63,75.77,34.38,75.79,32.58z"/>
		<path class="st16" d="M113.71,38.1c-2.75-0.09-4.97-1.59-5.66-3.99c-1-3.45,1.26-6.64,4.76-7.04c1.82-0.21,3.48,0.14,4.9,1.32
			c1.62,1.35,2.15,3.15,1.8,5.15c-0.37,2.12-1.73,3.5-3.76,4.16C115.1,37.92,114.39,37.97,113.71,38.1z M116.63,32.55
			c0-1.8-1.2-3.1-2.88-3.13c-1.68-0.03-3.01,1.36-2.99,3.12c0.02,1.74,1.28,3.06,2.92,3.07C115.39,35.61,116.63,34.33,116.63,32.55z
			"/>
		<path class="st16" d="M12.57,32.63c1.03,0,1.96,0,2.94,0c0,0.93,0,1.83,0,2.82c1.29-0.11,2.57,0.29,3.76-0.44
			c1.08-0.67,1.49-1.91,1.17-3.36c-0.25-1.14-1.28-2-2.44-2.03c-1.6-0.05-3.2-0.04-4.8-0.06c-0.19,0-0.37,0-0.59,0
			c0-0.79,0-1.52,0-2.31c0.13-0.01,0.27-0.05,0.41-0.05c1.68,0,3.35-0.03,5.03,0.02c1.5,0.04,2.84,0.56,3.96,1.6
			c2.36,2.18,2.17,7.25-2.05,8.62c-0.78,0.25-1.63,0.32-2.46,0.35c-1.48,0.05-2.97,0.02-4.46,0c-0.16,0-0.45-0.19-0.45-0.29
			C12.56,35.89,12.57,34.28,12.57,32.63z"/>
		<path class="st16" d="M44.64,28.9c-0.65,0.59-1.24,1.12-1.85,1.67c-0.25-0.19-0.48-0.38-0.72-0.55c-1.62-1.12-4.42-0.7-4.92,1.68
			c-0.26,1.22-0.07,2.41,0.99,3.24c1.02,0.81,2.19,0.87,3.39,0.39c0.14-0.05,0.27-0.3,0.27-0.46c0.03-0.82,0.01-1.63,0.01-2.5
			c0.86,0,1.7,0,2.61,0c0,1.36,0.01,2.72-0.02,4.08c0,0.16-0.24,0.36-0.42,0.46c-1.33,0.78-2.76,1.15-4.32,1.09
			c-2.23-0.1-3.98-0.99-4.98-3c-1.47-2.98-0.24-6.8,3.59-7.77c1.83-0.47,3.61-0.28,5.24,0.75C43.91,28.22,44.24,28.56,44.64,28.9z"
			/>
		<path class="st16" d="M90.14,34.67c0.64,0.94,1.36,1.98,2.15,3.13c-1.07,0-2.05,0.01-3.02-0.02c-0.12,0-0.26-0.2-0.35-0.33
			c-0.44-0.64-0.89-1.27-1.3-1.93c-0.25-0.41-0.55-0.64-1.06-0.56c-0.32,0.05-0.64,0.01-1.05,0.01c0,0.95,0,1.86,0,2.81
			c-1,0-1.93,0-2.9,0c0-1.66,0-3.32,0-5.05c0.37,0,0.75,0.01,1.12,0c1.37-0.03,2.74-0.02,4.1-0.11c0.87-0.06,1.3-0.64,1.3-1.49
			c0-0.83-0.46-1.42-1.3-1.5c-1-0.09-2.01-0.09-3.01-0.11c-0.74-0.02-1.47,0-2.23,0c0-0.79,0-1.52,0-2.37
			c2.08,0.07,4.14,0.01,6.16,0.24c2.66,0.31,4.11,2.95,3,5.32C91.42,33.42,90.73,33.97,90.14,34.67z"/>
		<path class="st16" d="M61.08,37.78c-1.02,0-1.94,0-2.95,0c0-2.75,0-5.49,0-8.26c-1.12,0-2.17,0-3.24,0c0-0.77,0-1.5,0-2.27
			c3.12,0,6.25,0,9.41,0c0,0.73,0,1.45,0,2.25c-1.06,0-2.12,0-3.22,0C61.08,32.28,61.08,35,61.08,37.78z"/>
		<path class="st16" d="M27.37,27.23c0.96,0,1.91,0,2.88,0c0,3.51,0,7,0,10.53c-0.96,0-1.9,0-2.88,0
			C27.37,34.27,27.37,30.78,27.37,27.23z"/>
		<path class="st16" d="M51.41,37.79c-0.98,0-1.91,0-2.88,0c0-3.52,0-7.02,0-10.55c0.95,0,1.89,0,2.88,0
			C51.41,30.74,51.41,34.24,51.41,37.79z"/>
		<path class="st16" d="M66.1,11.65c2.6-0.03,4.55,2.93,3.18,5.27c-0.26,0.44-0.22,0.71,0.15,1.06c0.88,0.82,1.7,1.68,2.54,2.54
			c0.23,0.23,0.59,0.48,0.21,0.85c-0.38,0.37-0.65,0.04-0.91-0.22c-0.87-0.88-1.75-1.74-2.61-2.64c-0.25-0.26-0.42-0.3-0.76-0.12
			c-2.52,1.39-5.56-0.4-5.44-3.23C62.55,13.19,64.13,11.65,66.1,11.65z M66.1,17.89c1.52,0,2.68-1.15,2.68-2.64
			c0-1.46-1.24-2.66-2.71-2.65c-1.45,0.01-2.64,1.21-2.64,2.65C63.42,16.75,64.58,17.9,66.1,17.89z"/>
		<path class="st16" d="M96.04,29.46c0-0.73,0-1.44,0-2.2c2.76,0,5.53,0,8.33,0c0,0.71,0,1.44,0,2.2
			C101.6,29.46,98.83,29.46,96.04,29.46z"/>
		<path class="st16" d="M96.04,33.52c0-0.69,0-1.37,0-2.09c2.76,0,5.52,0,8.33,0c0,0.68,0,1.37,0,2.09
			C101.6,33.52,98.84,33.52,96.04,33.52z"/>
		<path class="st16" d="M95.97,35.58c2.84,0,5.59,0,8.4,0c0,0.73,0,1.45,0,2.22c-0.15,0.01-0.29,0.03-0.44,0.03
			c-2.47,0-4.95-0.01-7.42,0.01c-0.43,0-0.57-0.12-0.54-0.55C96,36.74,95.97,36.19,95.97,35.58z M100.19,37.69c0.89,0,1.79,0,2.68,0
			c1.38,0,1.36,0,1.38-1.36c0.01-0.5-0.18-0.59-0.63-0.59c-1.99,0.02-3.99,0.01-5.98,0.01c-1.45,0-1.44,0-1.43,1.43
			c0,0.39,0.1,0.53,0.51,0.52C97.87,37.68,99.03,37.69,100.19,37.69z"/>
		<path class="st16" d="M75.79,32.58c-0.02,1.79-1.27,3.05-3,3.02c-1.66-0.02-2.86-1.34-2.84-3.12c0.01-1.8,1.25-3.08,2.94-3.07
			C74.61,29.43,75.81,30.74,75.79,32.58z"/>
		<path class="st16" d="M116.63,32.55c0,1.78-1.24,3.07-2.96,3.06c-1.64-0.01-2.89-1.33-2.92-3.07c-0.02-1.75,1.31-3.15,2.99-3.12
			C115.44,29.45,116.63,30.75,116.63,32.55z"/>
		<path class="st16" d="M66.1,17.89c-1.52,0-2.68-1.14-2.68-2.64c0-1.44,1.19-2.64,2.64-2.65c1.47-0.02,2.71,1.19,2.71,2.65
			C68.78,16.74,67.62,17.89,66.1,17.89z"/>
		<path class="st16" d="M100.19,37.69c-1.16,0-2.32-0.02-3.48,0.01c-0.41,0.01-0.51-0.14-0.51-0.52c-0.01-1.43-0.02-1.43,1.43-1.43
			c1.99,0,3.99,0.01,5.98-0.01c0.45,0,0.64,0.09,0.63,0.59c-0.02,1.36,0,1.36-1.38,1.36C101.98,37.69,101.08,37.69,100.19,37.69z"/>
	</g>
</g>
</svg>
