<?xml version="1.0" encoding="utf-8"?>
<!-- Generator: Adobe Illustrator 25.0.0, SVG Export Plug-In . SVG Version: 6.00 Build 0)  -->
<svg version="1.1" id="Capa_1" xmlns="http://www.w3.org/2000/svg" xmlns:xlink="http://www.w3.org/1999/xlink" x="0px" y="0px"
	 viewBox="0 0 132 39" style="enable-background:new 0 0 132 39;" xml:space="preserve">
<style type="text/css">
	.st0{display:none;}
	.st1{display:inline;}
	.st2{fill:#FEFEFE;}
	.st3{fill:#363636;}
	.st4{fill:#2A2727;}
	.st5{fill:#292626;}
	.st6{fill:#2C2929;}
	.st7{fill:#2B2828;}
	.st8{fill:#262324;}
	.st9{fill:#2D2A2A;}
	.st10{fill:#403F3F;}
	.st11{fill:#2B2727;}
	.st12{fill:#2F2C2C;}
	.st13{fill:#4C4949;}
	.st14{fill:#FCFCFC;}
	.st15{fill:#FCFBFC;}
	.st16{fill:#FFFFFF;}
</style>
<g class="st0">
	<g class="st1">
		<path class="st2" d="M1,39.4C1,26.6,1,13.8,1,1c42.8,0,85.5,0,128.3,0c0,12.8,0,25.6,0,38.4C86.5,39.4,43.8,39.4,1,39.4z M62,18.9
			c-0.1-0.1-0.2-0.2-0.3-0.3c-1.4-1.6-1.6-3.8-0.6-5.6c1-1.8,2.9-2.7,5-2.3c2.8,0.4,4.6,3.5,3.7,6.4c-0.1,0.2-0.1,0.5,0.1,0.6
			c1.2,1.4,1.3,1.4,3.1,1.4c0.2,0,0.4,0,0.6,0c2.4-0.2,4.2-2,4.3-4.4c0.1-2-1.2-4.2-3.5-4.8c-0.6-0.1-0.7-0.4-0.7-0.9
			c-0.2-4.8-4.8-9.1-10.4-7.3c-2.3,0.7-4,2-4.6,4.5c0,0.1-0.2,0.3-0.3,0.3c-0.2,0.1-0.4,0.1-0.6,0.1c-2.8,0.6-4.9,3.1-4.9,6.1
			c0,3,2.3,5.7,5.3,6.1C59.3,19.1,60.6,18.9,62,18.9z M72,38.2c0,0,0,0.1,0,0.2c0.9-0.2,1.9-0.4,2.8-0.7c3.6-1.6,4.3-6.6,1.2-9.1
			c-1.7-1.4-3.6-1.6-5.7-1.1c-3,0.7-4.7,3.8-3.9,6.8C66.9,36.4,69.2,38.2,72,38.2z M112.9,38.2c0.7-0.1,1.4-0.2,2-0.4
			c2-0.7,3.4-2,3.8-4.2c0.3-2-0.2-3.8-1.8-5.1c-1.4-1.2-3.1-1.5-4.9-1.3c-3.5,0.4-5.8,3.6-4.8,7C107.9,36.6,110.1,38.1,112.9,38.2z
			 M11.7,32.8c0,1.7,0,3.3,0,4.9c0,0.1,0.3,0.3,0.4,0.3c1.5,0,3,0,4.5,0c0.8,0,1.7-0.1,2.5-0.3c4.2-1.4,4.4-6.4,2-8.6
			c-1.1-1-2.5-1.5-4-1.6c-1.7,0-3.4,0-5,0c-0.1,0-0.3,0-0.4,0c0,0.8,0,1.5,0,2.3c0.2,0,0.4,0,0.6,0c1.6,0,3.2,0,4.8,0.1
			c1.2,0,2.2,0.9,2.4,2c0.3,1.5-0.1,2.7-1.2,3.4c-1.2,0.7-2.5,0.3-3.8,0.4c0-1,0-1.9,0-2.8C13.7,32.8,12.8,32.8,11.7,32.8z M43.8,29
			c-0.4-0.3-0.7-0.7-1.1-0.9c-1.6-1-3.4-1.2-5.2-0.8c-3.8,1-5.1,4.8-3.6,7.8c1,2,2.8,2.9,5,3c1.6,0.1,3-0.3,4.3-1.1
			c0.2-0.1,0.4-0.3,0.4-0.5c0-1.4,0-2.7,0-4.1c-0.9,0-1.8,0-2.6,0c0,0.9,0,1.7,0,2.5c0,0.2-0.1,0.4-0.3,0.5
			c-1.2,0.5-2.4,0.4-3.4-0.4c-1.1-0.8-1.2-2-1-3.2c0.5-2.4,3.3-2.8,4.9-1.7c0.2,0.2,0.5,0.4,0.7,0.5C42.6,30.1,43.2,29.6,43.8,29z
			 M89.3,34.8c0.6-0.7,1.3-1.2,1.6-2c1.1-2.4-0.3-5-3-5.3c-2-0.2-4.1-0.2-6.2-0.2c0,0.9,0,1.6,0,2.4c0.8,0,1.5,0,2.2,0
			c1,0,2,0,3,0.1c0.8,0.1,1.3,0.7,1.3,1.5c0,0.8-0.4,1.4-1.3,1.5c-1.4,0.1-2.7,0.1-4.1,0.1c-0.4,0-0.8,0-1.1,0c0,1.7,0,3.4,0,5
			c1,0,1.9,0,2.9,0c0-1,0-1.9,0-2.8c0.4,0,0.7,0,1.1,0c0.5-0.1,0.8,0.2,1.1,0.6c0.4,0.7,0.9,1.3,1.3,1.9c0.1,0.1,0.2,0.3,0.3,0.3
			c1,0,1.9,0,3,0C90.7,36.8,89.9,35.7,89.3,34.8z M60.2,37.9c0-2.8,0-5.5,0-8.3c1.1,0,2.2,0,3.2,0c0-0.8,0-1.5,0-2.2
			c-3.2,0-6.3,0-9.4,0c0,0.8,0,1.5,0,2.3c1.1,0,2.1,0,3.2,0c0,2.8,0,5.5,0,8.3C58.3,37.9,59.2,37.9,60.2,37.9z M26.5,27.4
			c0,3.5,0,7,0,10.5c1,0,1.9,0,2.9,0c0-3.5,0-7,0-10.5C28.4,27.4,27.5,27.4,26.5,27.4z M50.6,37.9c0-3.5,0-7,0-10.5
			c-1,0-1.9,0-2.9,0c0,3.5,0,7,0,10.5C48.7,37.9,49.6,37.9,50.6,37.9z M65.3,11.8c-2,0-3.5,1.5-3.6,3.5c-0.1,2.8,2.9,4.6,5.4,3.2
			c0.3-0.2,0.5-0.1,0.8,0.1c0.8,0.9,1.7,1.8,2.6,2.6c0.3,0.3,0.5,0.6,0.9,0.2c0.4-0.4,0-0.6-0.2-0.9c-0.8-0.9-1.7-1.7-2.5-2.5
			c-0.4-0.4-0.4-0.6-0.2-1.1C69.8,14.7,67.8,11.8,65.3,11.8z M95.2,29.6c2.8,0,5.6,0,8.3,0c0-0.8,0-1.5,0-2.2c-2.8,0-5.6,0-8.3,0
			C95.2,28.1,95.2,28.9,95.2,29.6z M95.2,33.7c2.8,0,5.6,0,8.3,0c0-0.7,0-1.4,0-2.1c-2.8,0-5.6,0-8.3,0C95.2,32.3,95.2,33,95.2,33.7
			z M95.1,35.7c0,0.6,0,1.2,0,1.7c0,0.4,0.1,0.5,0.5,0.5c2.5,0,4.9,0,7.4,0c0.2,0,0.3,0,0.4,0c0-0.8,0-1.5,0-2.2
			C100.7,35.7,98,35.7,95.1,35.7z"/>
		<path class="st3" d="M62,18.9c-1.4,0-2.7,0.1-4,0c-3-0.4-5.3-3.1-5.3-6.1c0-3.1,2.1-5.5,4.9-6.1c0.2,0,0.4-0.1,0.6-0.1
			c0.1-0.1,0.3-0.2,0.3-0.3c0.5-2.5,2.3-3.8,4.6-4.5C68.7-0.2,73.3,4.2,73.6,9c0,0.5,0.2,0.7,0.7,0.9c2.4,0.5,3.7,2.8,3.5,4.8
			c-0.2,2.4-2,4.2-4.3,4.4c-0.2,0-0.4,0-0.6,0c-1.8,0-1.9,0-3.1-1.4c-0.1-0.1-0.1-0.4-0.1-0.6c1-2.8-0.8-5.9-3.7-6.4
			c-2.1-0.3-4,0.6-5,2.3c-1,1.8-0.8,4,0.6,5.6C61.8,18.7,61.9,18.8,62,18.9z"/>
		<path class="st4" d="M72,38.2c-2.8,0-5-1.7-5.7-4c-0.8-3,0.9-6.1,3.9-6.8c2.1-0.5,4-0.2,5.7,1.1c3.1,2.5,2.5,7.5-1.2,9.1
			c-0.9,0.4-1.8,0.5-2.8,0.7C72,38.2,72,38.2,72,38.2z M74.9,32.7c0-1.8-1.2-3.1-2.9-3.2c-1.7,0-2.9,1.3-2.9,3.1
			c0,1.8,1.2,3.1,2.8,3.1C73.7,35.8,74.9,34.5,74.9,32.7z"/>
		<path class="st5" d="M112.9,38.2c-2.8-0.1-5-1.6-5.7-4c-1-3.5,1.3-6.6,4.8-7c1.8-0.2,3.5,0.1,4.9,1.3c1.6,1.4,2.2,3.1,1.8,5.2
			c-0.4,2.1-1.7,3.5-3.8,4.2C114.2,38,113.6,38.1,112.9,38.2z M115.8,32.7c0-1.8-1.2-3.1-2.9-3.1s-3,1.4-3,3.1
			c0,1.7,1.3,3.1,2.9,3.1C114.6,35.8,115.8,34.5,115.8,32.7z"/>
		<path class="st6" d="M11.7,32.8c1,0,2,0,2.9,0c0,0.9,0,1.8,0,2.8c1.3-0.1,2.6,0.3,3.8-0.4c1.1-0.7,1.5-1.9,1.2-3.4
			c-0.2-1.1-1.3-2-2.4-2c-1.6,0-3.2,0-4.8-0.1c-0.2,0-0.4,0-0.6,0c0-0.8,0-1.5,0-2.3c0.1,0,0.3,0,0.4,0c1.7,0,3.3,0,5,0
			c1.5,0,2.8,0.6,4,1.6c2.4,2.2,2.2,7.2-2,8.6c-0.8,0.2-1.6,0.3-2.5,0.3c-1.5,0-3,0-4.5,0c-0.2,0-0.4-0.2-0.4-0.3
			C11.7,36,11.7,34.4,11.7,32.8z"/>
		<path class="st7" d="M43.8,29c-0.7,0.6-1.2,1.1-1.8,1.7c-0.2-0.2-0.5-0.4-0.7-0.5c-1.6-1.1-4.4-0.7-4.9,1.7
			c-0.3,1.2-0.1,2.4,1,3.2c1,0.8,2.2,0.9,3.4,0.4c0.1,0,0.3-0.3,0.3-0.5c0-0.8,0-1.6,0-2.5c0.9,0,1.7,0,2.6,0c0,1.4,0,2.7,0,4.1
			c0,0.2-0.2,0.4-0.4,0.5c-1.3,0.8-2.8,1.2-4.3,1.1c-2.2-0.1-4-1-5-3c-1.5-3-0.2-6.8,3.6-7.8c1.8-0.5,3.6-0.3,5.2,0.8
			C43.1,28.4,43.4,28.7,43.8,29z"/>
		<path class="st4" d="M89.3,34.8c0.6,0.9,1.4,2,2.2,3.1c-1.1,0-2.1,0-3,0c-0.1,0-0.3-0.2-0.3-0.3c-0.4-0.6-0.9-1.3-1.3-1.9
			c-0.2-0.4-0.6-0.6-1.1-0.6c-0.3,0-0.6,0-1.1,0c0,1,0,1.9,0,2.8c-1,0-1.9,0-2.9,0c0-1.7,0-3.3,0-5c0.4,0,0.8,0,1.1,0
			c1.4,0,2.7,0,4.1-0.1c0.9-0.1,1.3-0.6,1.3-1.5c0-0.8-0.5-1.4-1.3-1.5c-1-0.1-2-0.1-3-0.1c-0.7,0-1.5,0-2.2,0c0-0.8,0-1.5,0-2.4
			c2.1,0.1,4.1,0,6.2,0.2c2.7,0.3,4.1,3,3,5.3C90.6,33.5,89.9,34.1,89.3,34.8z"/>
		<path class="st8" d="M60.2,37.9c-1,0-1.9,0-3,0c0-2.8,0-5.5,0-8.3c-1.1,0-2.2,0-3.2,0c0-0.8,0-1.5,0-2.3c3.1,0,6.2,0,9.4,0
			c0,0.7,0,1.5,0,2.2c-1.1,0-2.1,0-3.2,0C60.2,32.4,60.2,35.1,60.2,37.9z"/>
		<path class="st9" d="M26.5,27.4c1,0,1.9,0,2.9,0c0,3.5,0,7,0,10.5c-1,0-1.9,0-2.9,0C26.5,34.4,26.5,30.9,26.5,27.4z"/>
		<path class="st7" d="M50.6,37.9c-1,0-1.9,0-2.9,0c0-3.5,0-7,0-10.5c1,0,1.9,0,2.9,0C50.6,30.9,50.6,34.4,50.6,37.9z"/>
		<path class="st10" d="M65.3,11.8c2.6,0,4.6,2.9,3.2,5.3c-0.3,0.4-0.2,0.7,0.2,1.1c0.9,0.8,1.7,1.7,2.5,2.5
			c0.2,0.2,0.6,0.5,0.2,0.9s-0.7,0-0.9-0.2c-0.9-0.9-1.8-1.7-2.6-2.6c-0.2-0.3-0.4-0.3-0.8-0.1c-2.5,1.4-5.6-0.4-5.4-3.2
			C61.7,13.3,63.3,11.8,65.3,11.8z M65.3,18c1.5,0,2.7-1.1,2.7-2.6c0-1.5-1.2-2.7-2.7-2.7c-1.5,0-2.6,1.2-2.6,2.6
			C62.6,16.9,63.7,18,65.3,18z"/>
		<path class="st11" d="M95.2,29.6c0-0.7,0-1.4,0-2.2c2.8,0,5.5,0,8.3,0c0,0.7,0,1.4,0,2.2C100.8,29.6,98,29.6,95.2,29.6z"/>
		<path class="st12" d="M95.2,33.7c0-0.7,0-1.4,0-2.1c2.8,0,5.5,0,8.3,0c0,0.7,0,1.4,0,2.1C100.8,33.7,98,33.7,95.2,33.7z"/>
		<path class="st13" d="M95.1,35.7c2.8,0,5.6,0,8.4,0c0,0.7,0,1.5,0,2.2c-0.2,0-0.3,0-0.4,0c-2.5,0-4.9,0-7.4,0
			c-0.4,0-0.6-0.1-0.5-0.5C95.2,36.9,95.1,36.3,95.1,35.7z M99.3,37.8c0.9,0,1.8,0,2.7,0c1.4,0,1.4,0,1.4-1.4c0-0.5-0.2-0.6-0.6-0.6
			c-2,0-4,0-6,0c-1.4,0-1.4,0-1.4,1.4c0,0.4,0.1,0.5,0.5,0.5C97,37.8,98.2,37.8,99.3,37.8z"/>
		<path class="st14" d="M74.9,32.7c0,1.8-1.3,3-3,3c-1.7,0-2.9-1.3-2.8-3.1c0-1.8,1.2-3.1,2.9-3.1C73.8,29.6,75,30.9,74.9,32.7z"/>
		<path class="st15" d="M115.8,32.7c0,1.8-1.2,3.1-3,3.1c-1.6,0-2.9-1.3-2.9-3.1c0-1.8,1.3-3.1,3-3.1
			C114.6,29.6,115.8,30.9,115.8,32.7z"/>
		<path class="st14" d="M65.3,18c-1.5,0-2.7-1.1-2.7-2.6c0-1.4,1.2-2.6,2.6-2.7c1.5,0,2.7,1.2,2.7,2.6C67.9,16.9,66.8,18,65.3,18z"
			/>
		<path class="st4" d="M99.3,37.8c-1.2,0-2.3,0-3.5,0c-0.4,0-0.5-0.1-0.5-0.5c0-1.4,0-1.4,1.4-1.4c2,0,4,0,6,0
			c0.4,0,0.6,0.1,0.6,0.6c0,1.4,0,1.4-1.4,1.4C101.1,37.8,100.2,37.8,99.3,37.8z"/>
	</g>
</g>
<g class="st0">
	<g class="st1">
		<path class="st16" d="M130.2,38.7c-42.8,0-85.5,0-128.3,0c0-12.8,0-25.6,0-38.4c42.8,0,85.5,0,128.3,0
			C130.2,13.1,130.2,25.9,130.2,38.7z M62.6,18.4c0-0.1,0-0.1,0-0.2c-0.1-0.1-0.2-0.3-0.3-0.4c-2-2.5-1.1-6.4,1.8-7.5
			c1.9-0.7,3.7-0.5,5.2,1c1.5,1.4,1.8,3.2,1.2,5.1c-0.1,0.3-0.1,0.5,0.1,0.7c1.3,1.4,1.3,1.4,3.2,1.3c0.2,0,0.3,0,0.4,0
			c2.3-0.2,4.1-2,4.3-4.4c0.2-2.1-1.3-4.2-3.5-4.7c-0.6-0.2-0.8-0.4-0.8-1C74,3.5,69.4-0.8,63.8,1c-2.2,0.7-4,2-4.5,4.5
			c0,0.2-0.2,0.3-0.4,0.4c-0.2,0.1-0.4,0.1-0.6,0.1c-2.8,0.6-4.9,3.2-4.9,6.1c0.1,3.1,2.1,5.5,4.9,6.1
			C59.7,18.4,61.2,18.3,62.6,18.4z M72.8,37.5c0.7-0.1,1.3-0.2,2-0.4c2-0.6,3.3-2,3.7-4c0.4-2.1-0.1-4-1.8-5.4
			c-1.4-1.1-3-1.4-4.8-1.3c-3.5,0.3-5.8,3.6-4.8,6.9C67.7,35.7,69.9,37.5,72.8,37.5z M119.5,32c0-1.3-0.3-2.5-1.2-3.5
			c-1.7-1.9-3.8-2.4-6.3-1.9c-2.1,0.5-3.5,1.7-4.1,3.7c-0.6,2-0.2,3.9,1.4,5.4c1.6,1.5,3.5,1.9,5.6,1.5
			C117.7,36.8,119.5,34.7,119.5,32z M12.5,32.1c0,1.7,0,3.2,0,4.8c0,0.1,0.3,0.3,0.5,0.3c1.9,0,3.8,0,5.6-0.1c1.2,0,2.3-0.6,3.2-1.4
			c1.6-1.5,1.9-3.4,1.3-5.4c-0.6-2.1-2.2-3.2-4.2-3.5c-1.5-0.2-3.1-0.1-4.7-0.2c-0.6,0-1.3-0.1-1.6,0.1c-0.3,0.3-0.1,1-0.1,1.6
			c0,0.5,0.1,0.6,0.6,0.6c1.6,0,3.2,0,4.8,0c1.2,0,2.3,1,2.5,2.1c0.3,1.5-0.2,2.8-1.4,3.4c-1.1,0.6-2.4,0.2-3.6,0.3c0-1,0-1.9,0-2.8
			C14.4,32.1,13.5,32.1,12.5,32.1z M41.7,31.8c0,0.9,0,1.7,0,2.5c0,0.2-0.2,0.5-0.3,0.5c-0.7,0.1-1.4,0.3-2.1,0.2
			c-1.5-0.3-2.2-1.3-2.3-3.1c-0.1-1.8,1.5-3.2,3.2-3c1,0.1,1.7,0.5,2.5,1.1c0.6-0.6,1.2-1.1,1.9-1.7c-0.2-0.2-0.4-0.3-0.5-0.4
			c-1.7-1.5-3.7-1.7-5.8-1.2c-2.2,0.5-3.7,1.9-4.1,4.2c-0.4,2.2,0.2,4.1,2,5.4c2.1,1.5,4.4,1.4,6.7,0.6c1.5-0.6,1.5-0.6,1.5-2.2
			c0-1,0-1.9,0-2.9C43.4,31.8,42.6,31.8,41.7,31.8z M89.9,33.9c0.2-0.1,0.3-0.2,0.5-0.3c1.8-1.2,2.2-3.8,0.8-5.5
			c-0.9-1-2.1-1.4-3.5-1.5c-1.6-0.1-3.3,0-4.9,0c-0.1,0-0.2,0-0.3,0c0,0.7,0,1.5,0,2.2c0.4,0,0.7,0,1,0c1.4,0,2.8,0,4.2,0.1
			c0.9,0.1,1.3,0.7,1.3,1.5c0,0.8-0.4,1.4-1.3,1.5c-1.5,0.1-2.9,0.1-4.4,0.1c-0.3,0-0.5,0-0.8,0c0,1.6,0,3.2,0,4.7
			c0,0.1,0.3,0.3,0.4,0.3c0.7,0,1.4,0,2.1,0c0.3,0,0.4-0.1,0.4-0.4c0-0.7,0-1.3,0-1.9c0-0.1,0-0.3,0.1-0.4c0.2-0.2,1.7,0,1.8,0.3
			c0.5,0.7,1,1.4,1.4,2.1c0.1,0.2,0.3,0.4,0.4,0.4c0.9,0,1.9,0,2.9,0C91.4,36,90.7,35,89.9,33.9z M58,37.2c0.8,0,1.6,0,2.3,0
			c0.5,0,0.6-0.2,0.6-0.6c0-2.4,0-4.8,0-7.2c0-0.1,0-0.3,0-0.5c1.1,0,2.1,0,3.2,0c0-0.8,0-1.5,0-2.2c-3.2,0-6.3,0-9.4,0
			c0,0.8,0,1.5,0,2.2c0.9,0,1.7,0,2.5,0c0.6,0,0.7,0.2,0.7,0.7c0,2.3,0,4.6,0,6.9C58,36.7,58,37,58,37.2z M48.5,26.7
			C48.4,26.7,48.4,26.7,48.5,26.7c-0.1,3.5-0.1,6.8-0.1,10.2c0,0.1,0.2,0.3,0.3,0.3c0.9,0,1.7,0,2.6,0c0-3.6,0-7,0-10.5
			C50.3,26.7,49.4,26.7,48.5,26.7z M27.3,26.7c0,0.1-0.1,0.1-0.1,0.1c0,3.3,0,6.7,0,10c0,0.3,0.1,0.4,0.4,0.4c0.6,0,1.3,0,1.9,0
			c0.5,0,0.6-0.2,0.6-0.7c0-3.1,0-6.2,0-9.4c0-0.2,0-0.4,0-0.6C29.1,26.7,28.2,26.7,27.3,26.7z M66,11.1c-1.9,0-3.5,1.6-3.6,3.5
			c-0.1,2.8,2.8,4.6,5.3,3.3c0.4-0.2,0.7-0.2,1,0.2c0.8,0.9,1.7,1.7,2.6,2.6c0.2,0.2,0.5,0.5,0.8,0.1s0.1-0.5-0.2-0.8
			c-0.8-0.9-1.7-1.7-2.5-2.5c-0.4-0.4-0.5-0.6-0.2-1.1C70.4,13.9,68.7,11.1,66,11.1z M95.9,28.9c2.8,0,5.5,0,8.3,0
			c0-0.8,0-1.5,0-2.2c-2.8,0-5.5,0-8.3,0C95.9,27.4,95.9,28.1,95.9,28.9z M95.9,35c0,0.6,0,1.1,0,1.6c0,0.4,0.1,0.6,0.6,0.6
			c1.9,0,3.7,0,5.6,0c0.7,0,1.4,0,2.2,0c0-0.8,0-1.5,0-2.2C101.4,35,98.7,35,95.9,35z M95.9,32.9c2.8,0,5.5,0,8.3,0
			c0-0.7,0-1.4,0-2.1c-2.8,0-5.5,0-8.3,0C95.9,31.5,95.9,32.2,95.9,32.9z"/>
		<path d="M62.6,18.4c-1.4-0.1-2.9,0-4.2-0.3c-2.8-0.5-4.8-3-4.9-6.1c0-2.9,2.1-5.4,4.9-6.1c0.2-0.1,0.4-0.1,0.6-0.1
			c0.2-0.1,0.4-0.2,0.4-0.4C59.8,3,61.6,1.7,63.8,1c5.6-1.8,10.1,2.5,10.4,7.2c0,0.6,0.2,0.8,0.8,1c2.1,0.6,3.6,2.7,3.5,4.7
			c-0.2,2.4-1.9,4.2-4.3,4.4c-0.2,0-0.3,0-0.4,0c-1.8,0.1-1.9,0.1-3.2-1.3c-0.2-0.2-0.2-0.4-0.1-0.7c0.6-1.9,0.3-3.7-1.2-5.1
			c-1.5-1.4-3.3-1.7-5.2-1c-3,1.1-3.9,5-1.8,7.5c0.1,0.1,0.2,0.3,0.3,0.4C62.6,18.3,62.6,18.3,62.6,18.4z"/>
		<path d="M72.8,37.5c-2.9,0-5.1-1.8-5.7-4.1c-0.9-3.4,1.4-6.6,4.8-6.9c1.8-0.2,3.4,0.1,4.8,1.3c1.7,1.4,2.3,3.2,1.8,5.4
			c-0.4,2-1.8,3.4-3.7,4C74.1,37.3,73.4,37.4,72.8,37.5z M69.8,32c0,1.8,1.2,3.1,2.9,3.1c1.7,0,2.9-1.3,2.9-3.1s-1.2-3.1-2.9-3.1
			C71.1,28.8,69.8,30.1,69.8,32z"/>
		<path d="M119.5,32c0,2.7-1.8,4.8-4.5,5.3c-2.1,0.4-4.1,0-5.6-1.5c-1.5-1.5-1.9-3.4-1.4-5.4c0.6-2,2-3.3,4.1-3.7
			c2.4-0.5,4.6-0.1,6.3,1.9C119.1,29.5,119.5,30.7,119.5,32z M116.5,31.9c0-1.8-1.3-3.1-2.9-3.1c-1.7,0-3,1.4-2.9,3.1
			c0,1.8,1.3,3.1,3,3.1C115.3,35,116.5,33.7,116.5,31.9z"/>
		<path d="M12.5,32.1c1,0,1.9,0,2.9,0c0,0.9,0,1.8,0,2.8c1.3-0.1,2.5,0.3,3.6-0.3c1.2-0.6,1.7-1.9,1.4-3.4c-0.2-1.1-1.3-2.1-2.5-2.1
			c-1.6-0.1-3.2-0.1-4.8,0c-0.5,0-0.6-0.2-0.6-0.6c0.1-0.5-0.2-1.3,0.1-1.6c0.3-0.3,1.1-0.1,1.6-0.1c1.6,0,3.1-0.1,4.7,0.2
			c2,0.3,3.6,1.4,4.2,3.5c0.6,2,0.3,3.9-1.3,5.4c-0.9,0.8-2,1.4-3.2,1.4c-1.9,0.1-3.8,0.1-5.6,0.1c-0.2,0-0.4-0.2-0.5-0.3
			C12.5,35.3,12.5,33.7,12.5,32.1z"/>
		<path d="M41.7,31.8c0.9,0,1.7,0,2.6,0c0,1,0,1.9,0,2.9c0,1.6,0,1.6-1.5,2.2c-2.3,0.9-4.6,0.9-6.7-0.6c-1.9-1.3-2.4-3.3-2-5.4
			c0.4-2.3,1.9-3.6,4.1-4.2c2.1-0.5,4.1-0.2,5.8,1.2c0.1,0.1,0.3,0.2,0.5,0.4c-0.7,0.6-1.2,1.1-1.9,1.7c-0.7-0.6-1.5-1-2.5-1.1
			c-1.8-0.2-3.3,1.2-3.2,3c0.1,1.8,0.8,2.8,2.3,3.1c0.7,0.1,1.4-0.1,2.1-0.2c0.1,0,0.3-0.3,0.3-0.5C41.7,33.5,41.7,32.7,41.7,31.8z"
			/>
		<path d="M89.9,33.9c0.8,1.1,1.5,2.1,2.2,3.3c-1.1,0-2,0-2.9,0c-0.2,0-0.3-0.2-0.4-0.4c-0.5-0.7-1-1.4-1.4-2.1
			c-0.2-0.3-1.6-0.5-1.8-0.3c-0.1,0.1-0.1,0.3-0.1,0.4c0,0.7,0,1.3,0,1.9c0,0.3-0.1,0.4-0.4,0.4c-0.7,0-1.4,0-2.1,0
			c-0.1,0-0.4-0.2-0.4-0.3c0-1.5,0-3.1,0-4.7c0.3,0,0.6,0,0.8,0c1.5,0,2.9,0,4.4-0.1c0.9-0.1,1.3-0.6,1.3-1.5c0-0.9-0.4-1.5-1.3-1.5
			c-1.4-0.1-2.8-0.1-4.2-0.1c-0.3,0-0.7,0-1,0c0-0.8,0-1.5,0-2.2c0.1,0,0.2,0,0.3,0c1.6,0,3.3,0,4.9,0c1.3,0,2.6,0.4,3.5,1.5
			c1.4,1.6,1.1,4.3-0.8,5.4C90.2,33.7,90.1,33.8,89.9,33.9z"/>
		<path d="M58,37.2c0-0.3,0-0.5,0-0.7c0-2.3,0-4.6,0-6.9c0-0.6-0.1-0.8-0.7-0.7c-0.8,0-1.7,0-2.5,0c0-0.8,0-1.5,0-2.2
			c3.1,0,6.2,0,9.4,0c0,0.7,0,1.4,0,2.2c-1.1,0-2.1,0-3.2,0c0,0.2,0,0.4,0,0.5c0,2.4,0,4.8,0,7.2c0,0.5-0.1,0.7-0.6,0.6
			C59.6,37.2,58.8,37.2,58,37.2z"/>
		<path d="M48.5,26.7c0.9,0,1.8,0,2.8,0c0,3.5,0,7,0,10.5c-0.9,0-1.8,0-2.6,0c-0.1,0-0.3-0.2-0.3-0.3C48.4,33.5,48.4,30.1,48.5,26.7
			C48.4,26.7,48.4,26.7,48.5,26.7z"/>
		<path d="M27.3,26.7c0.9,0,1.8,0,2.8,0c0,0.2,0,0.4,0,0.6c0,3.1,0,6.2,0,9.4c0,0.5-0.1,0.7-0.6,0.7c-0.6,0-1.3,0-1.9,0
			c-0.3,0-0.4-0.1-0.4-0.4c0-3.3,0-6.7,0-10C27.2,26.8,27.3,26.7,27.3,26.7z"/>
		<path d="M66,11.1c2.7,0,4.4,2.9,3.2,5.2c-0.3,0.5-0.2,0.8,0.2,1.1c0.9,0.8,1.7,1.7,2.5,2.5c0.2,0.2,0.5,0.5,0.2,0.8
			c-0.3,0.3-0.6,0.1-0.8-0.1c-0.9-0.9-1.7-1.7-2.6-2.6c-0.3-0.3-0.5-0.4-1-0.2c-2.5,1.3-5.4-0.5-5.3-3.3
			C62.4,12.7,64.1,11.1,66,11.1z M66,17.3c1.5,0,2.7-1.2,2.7-2.7c0-1.5-1.2-2.7-2.7-2.7c-1.5,0-2.7,1.2-2.7,2.7
			C63.3,16.2,64.5,17.3,66,17.3z"/>
		<path d="M95.9,28.9c0-0.8,0-1.5,0-2.2c2.8,0,5.5,0,8.3,0c0,0.7,0,1.5,0,2.2C101.5,28.9,98.7,28.9,95.9,28.9z"/>
		<path d="M95.9,35c2.8,0,5.6,0,8.3,0c0,0.7,0,1.4,0,2.2c-0.8,0-1.5,0-2.2,0c-1.9,0-3.7,0-5.6,0c-0.5,0-0.6-0.1-0.6-0.6
			C95.9,36.1,95.9,35.6,95.9,35z"/>
		<path d="M95.9,32.9c0-0.7,0-1.4,0-2.1c2.8,0,5.5,0,8.3,0c0,0.7,0,1.4,0,2.1C101.5,32.9,98.7,32.9,95.9,32.9z"/>
		<path class="st16" d="M69.8,32c0-1.8,1.2-3.1,3-3.1c1.7,0,2.9,1.3,2.9,3.1c0,1.8-1.2,3.1-2.9,3.1C71.1,35,69.8,33.7,69.8,32z"/>
		<path class="st16" d="M116.5,31.9c0,1.8-1.2,3.1-2.9,3.1c-1.7,0-3-1.3-3-3.1c0-1.7,1.3-3.1,2.9-3.1
			C115.2,28.8,116.5,30.1,116.5,31.9z"/>
		<path class="st16" d="M66,17.3c-1.5,0-2.7-1.1-2.7-2.6c0-1.5,1.2-2.7,2.7-2.7c1.5,0,2.7,1.2,2.7,2.7C68.7,16.2,67.5,17.3,66,17.3z
			"/>
	</g>
</g>
<g>
	<g>
		<path class="st3" d="M62.1,18.8c-1.4,0-2.7,0.1-4,0c-3-0.4-5.3-3.1-5.3-6.1c0-3.1,2.1-5.5,4.9-6.1c0.2,0,0.4-0.1,0.6-0.1
			c0.1-0.1,0.3-0.2,0.3-0.3c0.5-2.5,2.3-3.8,4.6-4.5C68.8-0.3,73.4,4,73.7,8.8c0,0.5,0.2,0.7,0.7,0.9c2.4,0.5,3.7,2.8,3.5,4.8
			c-0.2,2.4-2,4.2-4.3,4.4c-0.2,0-0.4,0-0.6,0c-1.8,0-1.9,0-3.1-1.4c-0.1-0.1-0.1-0.4-0.1-0.6c1-2.8-0.8-5.9-3.7-6.4
			c-2.1-0.3-4,0.6-5,2.3c-1,1.8-0.8,4,0.6,5.6C61.9,18.6,62,18.7,62.1,18.8z"/>
		<path class="st4" d="M72.1,38c-2.8,0-5-1.7-5.7-4c-0.8-3,0.9-6.1,3.9-6.8c2.1-0.5,4-0.2,5.7,1.1c3.1,2.5,2.5,7.5-1.2,9.1
			c-0.9,0.4-1.8,0.5-2.8,0.7C72.1,38.1,72.1,38.1,72.1,38z M75.1,32.6c0-1.8-1.2-3.1-2.9-3.2c-1.7,0-2.9,1.3-2.9,3.1
			c0,1.8,1.2,3.1,2.8,3.1C73.8,35.6,75,34.4,75.1,32.6z"/>
		<path class="st5" d="M113,38.1c-2.8-0.1-5-1.6-5.7-4c-1-3.4,1.3-6.6,4.8-7c1.8-0.2,3.5,0.1,4.9,1.3c1.6,1.4,2.2,3.1,1.8,5.1
			c-0.4,2.1-1.7,3.5-3.8,4.2C114.4,37.9,113.7,38,113,38.1z M115.9,32.5c0-1.8-1.2-3.1-2.9-3.1s-3,1.4-3,3.1c0,1.7,1.3,3.1,2.9,3.1
			C114.7,35.6,115.9,34.3,115.9,32.5z"/>
		<path class="st6" d="M11.8,32.6c1,0,2,0,2.9,0c0,0.9,0,1.8,0,2.8c1.3-0.1,2.6,0.3,3.8-0.4c1.1-0.7,1.5-1.9,1.2-3.4
			c-0.2-1.1-1.3-2-2.4-2c-1.6,0-3.2,0-4.8-0.1c-0.2,0-0.4,0-0.6,0c0-0.8,0-1.5,0-2.3c0.1,0,0.3,0,0.4,0c1.7,0,3.3,0,5,0
			c1.5,0,2.8,0.6,4,1.6c2.4,2.2,2.2,7.2-2,8.6c-0.8,0.2-1.6,0.3-2.5,0.3c-1.5,0-3,0-4.5,0c-0.2,0-0.4-0.2-0.4-0.3
			C11.8,35.9,11.8,34.3,11.8,32.6z"/>
		<path class="st7" d="M43.9,28.9c-0.7,0.6-1.2,1.1-1.8,1.7c-0.2-0.2-0.5-0.4-0.7-0.5c-1.6-1.1-4.4-0.7-4.9,1.7
			c-0.3,1.2-0.1,2.4,1,3.2c1,0.8,2.2,0.9,3.4,0.4c0.1,0,0.3-0.3,0.3-0.5c0-0.8,0-1.6,0-2.5c0.9,0,1.7,0,2.6,0c0,1.4,0,2.7,0,4.1
			c0,0.2-0.2,0.4-0.4,0.5c-1.3,0.8-2.8,1.2-4.3,1.1c-2.2-0.1-4-1-5-3c-1.5-3-0.2-6.8,3.6-7.8c1.8-0.5,3.6-0.3,5.2,0.8
			C43.2,28.2,43.5,28.6,43.9,28.9z"/>
		<path class="st4" d="M89.4,34.7c0.6,0.9,1.4,2,2.2,3.1c-1.1,0-2.1,0-3,0c-0.1,0-0.3-0.2-0.3-0.3c-0.4-0.6-0.9-1.3-1.3-1.9
			c-0.2-0.4-0.6-0.6-1.1-0.6c-0.3,0-0.6,0-1.1,0c0,1,0,1.9,0,2.8c-1,0-1.9,0-2.9,0c0-1.7,0-3.3,0-5c0.4,0,0.8,0,1.1,0
			c1.4,0,2.7,0,4.1-0.1c0.9-0.1,1.3-0.6,1.3-1.5c0-0.8-0.5-1.4-1.3-1.5c-1-0.1-2-0.1-3-0.1c-0.7,0-1.5,0-2.2,0c0-0.8,0-1.5,0-2.4
			c2.1,0.1,4.1,0,6.2,0.2c2.7,0.3,4.1,3,3,5.3C90.7,33.4,90,34,89.4,34.7z"/>
		<path class="st8" d="M60.3,37.8c-1,0-1.9,0-3,0c0-2.8,0-5.5,0-8.3c-1.1,0-2.2,0-3.2,0c0-0.8,0-1.5,0-2.3c3.1,0,6.2,0,9.4,0
			c0,0.7,0,1.5,0,2.2c-1.1,0-2.1,0-3.2,0C60.3,32.3,60.3,35,60.3,37.8z"/>
		<path class="st9" d="M26.6,27.2c1,0,1.9,0,2.9,0c0,3.5,0,7,0,10.5c-1,0-1.9,0-2.9,0C26.6,34.3,26.6,30.8,26.6,27.2z"/>
		<path class="st7" d="M50.7,37.8c-1,0-1.9,0-2.9,0c0-3.5,0-7,0-10.5c1,0,1.9,0,2.9,0C50.7,30.7,50.7,34.2,50.7,37.8z"/>
		<path class="st10" d="M65.4,11.6c2.6,0,4.6,2.9,3.2,5.3c-0.3,0.4-0.2,0.7,0.2,1.1c0.9,0.8,1.7,1.7,2.5,2.5
			c0.2,0.2,0.6,0.5,0.2,0.9s-0.7,0-0.9-0.2c-0.9-0.9-1.8-1.7-2.6-2.6c-0.2-0.3-0.4-0.3-0.8-0.1c-2.5,1.4-5.6-0.4-5.4-3.2
			C61.8,13.2,63.4,11.6,65.4,11.6z M65.4,17.9c1.5,0,2.7-1.1,2.7-2.6c0-1.5-1.2-2.7-2.7-2.7c-1.5,0-2.6,1.2-2.6,2.6
			C62.7,16.8,63.8,17.9,65.4,17.9z"/>
		<path class="st11" d="M95.3,29.5c0-0.7,0-1.4,0-2.2c2.8,0,5.5,0,8.3,0c0,0.7,0,1.4,0,2.2C100.9,29.5,98.1,29.5,95.3,29.5z"/>
		<path class="st12" d="M95.3,33.5c0-0.7,0-1.4,0-2.1c2.8,0,5.5,0,8.3,0c0,0.7,0,1.4,0,2.1C100.9,33.5,98.1,33.5,95.3,33.5z"/>
		<path class="st13" d="M95.2,35.6c2.8,0,5.6,0,8.4,0c0,0.7,0,1.5,0,2.2c-0.2,0-0.3,0-0.4,0c-2.5,0-4.9,0-7.4,0
			c-0.4,0-0.6-0.1-0.5-0.5C95.3,36.7,95.2,36.2,95.2,35.6z M99.5,37.7c0.9,0,1.8,0,2.7,0c1.4,0,1.4,0,1.4-1.4c0-0.5-0.2-0.6-0.6-0.6
			c-2,0-4,0-6,0c-1.4,0-1.4,0-1.4,1.4c0,0.4,0.1,0.5,0.5,0.5C97.1,37.7,98.3,37.7,99.5,37.7z"/>
		<path class="st14" d="M75.1,32.6c0,1.8-1.3,3-3,3c-1.7,0-2.9-1.3-2.8-3.1c0-1.8,1.2-3.1,2.9-3.1C73.9,29.4,75.1,30.7,75.1,32.6z"
			/>
		<path class="st4" d="M99.5,37.7c-1.2,0-2.3,0-3.5,0c-0.4,0-0.5-0.1-0.5-0.5c0-1.4,0-1.4,1.4-1.4c2,0,4,0,6,0
			c0.4,0,0.6,0.1,0.6,0.6c0,1.4,0,1.4-1.4,1.4C101.2,37.7,100.3,37.7,99.5,37.7z"/>
	</g>
</g>
</svg>
