<?xml version="1.0" encoding="utf-8"?>
<!-- Generator: Adobe Illustrator 25.0.0, SVG Export Plug-In . SVG Version: 6.00 Build 0)  -->
<svg version="1.1" id="Capa_1" xmlns="http://www.w3.org/2000/svg" xmlns:xlink="http://www.w3.org/1999/xlink" x="0px" y="0px"
	 viewBox="0 0 132 39" style="enable-background:new 0 0 132 39;" xml:space="preserve">
<style type="text/css">
	.st0{fill:#FFFFFF;}
</style>
<g>
	<g>
		<path class="st0" d="M130.32,39.43c-42.77,0-85.54,0-128.32,0C2,26.62,2,13.81,2,1c42.77,0,85.54,0,128.32,0
			C130.32,13.81,130.32,26.62,130.32,39.43z M62.77,19.02c0.02-0.06,0.04-0.11,0.07-0.17c-1.12-1.11-1.58-2.44-1.46-3.99
			c0.18-2.56,2.61-4.6,5.15-4.32c3.23,0.36,5.17,3.39,4.11,6.45c-0.11,0.31-0.02,0.46,0.15,0.7c0.85,1.2,2.01,1.5,3.39,1.25
			c0.07-0.01,0.15-0.02,0.23-0.02c2.31-0.22,4.02-1.96,4.25-4.36c0.2-2.02-1.28-4.18-3.36-4.74c-0.65-0.17-0.86-0.44-0.9-1.09
			c-0.35-4.99-5.25-9.33-11.15-6.88c-1.71,0.71-3.12,1.83-3.62,3.7c-0.18,0.68-0.48,0.92-1.12,1.06c-2.83,0.6-4.9,3.05-4.9,6.15
			c0,3,2.15,5.55,5.08,6.05C60.03,19.03,61.41,18.96,62.77,19.02z M72.89,38.22c0.7-0.13,1.43-0.18,2.1-0.41
			c1.94-0.66,3.25-1.97,3.67-4c0.43-2.1-0.13-3.92-1.8-5.34c-1.39-1.18-3.02-1.47-4.8-1.31c-3.39,0.3-5.7,3.51-4.88,6.8
			C67.78,36.41,70.01,38.15,72.89,38.22z M119.63,32.66c0.01-1.3-0.34-2.49-1.2-3.48c-1.71-1.95-3.88-2.4-6.32-1.87
			c-4.02,0.87-5.66,5.92-2.86,8.94c1.59,1.72,3.63,2.15,5.89,1.73C117.78,37.5,119.61,35.35,119.63,32.66z M12.69,32.77
			c-0.02,0.1-0.06,0.17-0.06,0.24c0,1.5,0,3.01-0.01,4.51c0,0.35,0.17,0.4,0.46,0.4c1.33-0.01,2.66,0.02,4-0.01
			c0.85-0.02,1.73-0.01,2.54-0.23c2.74-0.77,3.97-2.67,3.92-5.13c-0.06-2.92-1.81-4.65-4.38-5.04c-2.03-0.31-4.13-0.15-6.2-0.18
			c-0.11,0-0.31,0.17-0.32,0.27c-0.03,0.66-0.01,1.32-0.01,2.06c0.27,0,0.47,0,0.67,0c1.58,0.02,3.16,0.01,4.73,0.06
			c1.2,0.04,2.22,0.96,2.47,2.1c0.32,1.47-0.18,2.74-1.28,3.38c-1.16,0.67-2.4,0.28-3.68,0.41c0-1,0-1.9,0-2.83
			C14.55,32.77,13.63,32.77,12.69,32.77z M41.87,32.48c0,0.69,0,1.33,0,1.98c0,0.99,0,0.99-0.98,1.22c-1.21,0.28-2.6-0.24-3.25-1.17
			c-0.72-1.04-0.69-2.84,0.01-3.77c0.98-1.31,3-1.62,4.45-0.63c0.25,0.17,0.48,0.36,0.74,0.56c0.6-0.55,1.19-1.08,1.87-1.7
			c-0.22-0.17-0.39-0.29-0.55-0.42c-1.73-1.47-3.74-1.72-5.84-1.2c-2.14,0.54-3.61,1.89-4.03,4.11c-0.4,2.12,0.12,4.01,1.87,5.43
			c2.3,1.86,5.83,1.5,8.07,0.04c0.11-0.07,0.23-0.23,0.23-0.35c0.02-1.35,0.01-2.7,0.01-4.08C43.58,32.48,42.77,32.48,41.87,32.48z
			 M90.08,34.65c0.41-0.33,0.82-0.59,1.13-0.93c1.77-1.96,0.98-5.09-1.52-5.98c-0.7-0.25-1.47-0.38-2.22-0.41
			c-1.59-0.06-3.19-0.02-4.8-0.02c0,0.79,0,1.52,0,2.29c0.86,0,1.67-0.01,2.49,0c0.89,0.02,1.79,0,2.67,0.1
			c0.92,0.1,1.36,0.66,1.36,1.52c0,0.89-0.45,1.47-1.41,1.53c-1.46,0.1-2.93,0.07-4.39,0.1c-0.24,0-0.48,0.02-0.73,0.03
			c0,1.69,0,3.32,0,5.03c0.88,0,1.73,0.01,2.58-0.02c0.1,0,0.27-0.24,0.27-0.37c0.03-0.55,0.01-1.1,0.01-1.66c0-0.8,0-0.75,0.8-0.82
			c0.7-0.06,1.13,0.17,1.47,0.77c0.34,0.61,0.77,1.18,1.18,1.75c0.1,0.14,0.27,0.32,0.42,0.32c0.92,0.03,1.85,0.01,2.91,0.01
			C91.53,36.77,90.82,35.73,90.08,34.65z M58.18,37.92c0.84,0,1.62-0.02,2.39,0.01c0.44,0.02,0.54-0.15,0.54-0.56
			c-0.02-2.42-0.01-4.84-0.01-7.26c0-0.15,0.01-0.29,0.03-0.52c1.08,0,2.13,0,3.2,0c0-0.79,0-1.51,0-2.24c-3.16,0-6.28,0-9.4,0
			c0,0.77,0,1.48,0,2.24c0.91,0,1.78,0.03,2.65-0.01c0.49-0.02,0.61,0.16,0.6,0.62c-0.02,2.34-0.01,4.68-0.01,7.03
			C58.18,37.45,58.18,37.65,58.18,37.92z M51.44,37.91c0-3.57,0-7.07,0-10.58c-0.98,0-1.9,0-2.9,0c0,0.23,0,0.44,0,0.64
			c0,1.71,0,3.43,0,5.14c0,1.43-0.01,2.85,0.01,4.28c0,0.17,0.16,0.49,0.26,0.5C49.68,37.93,50.55,37.91,51.44,37.91z M27.45,27.33
			c-0.03,0.1-0.06,0.13-0.06,0.17c0,3.34,0,6.67-0.01,10.01c0,0.34,0.14,0.43,0.44,0.42c0.63-0.01,1.26-0.03,1.88,0.01
			c0.49,0.03,0.6-0.16,0.6-0.62c-0.02-3.14-0.01-6.29-0.01-9.43c0-0.18-0.02-0.36-0.03-0.55C29.29,27.33,28.38,27.33,27.45,27.33z
			 M66.14,11.72c-1.94,0-3.59,1.62-3.62,3.54c-0.04,2.77,2.89,4.53,5.35,3.21c0.4-0.21,0.61-0.18,0.91,0.14
			c0.86,0.92,1.76,1.79,2.65,2.68c0.23,0.23,0.48,0.42,0.78,0.13c0.33-0.32,0.07-0.55-0.14-0.77c-0.85-0.87-1.69-1.76-2.58-2.59
			c-0.39-0.37-0.44-0.63-0.18-1.11C70.57,14.59,68.82,11.72,66.14,11.72z M104.4,27.34c-2.78,0-5.53,0-8.29,0c0,0.76,0,1.49,0,2.22
			c2.79,0,5.52,0,8.29,0C104.4,28.81,104.4,28.08,104.4,27.34z M104.39,37.89c0-0.75,0-1.46,0-2.15c-2.8,0-5.55,0-8.29,0
			c0,0.74,0,1.43,0,2.15C98.88,37.89,101.61,37.89,104.39,37.89z M104.39,33.63c0-0.71,0-1.4,0-2.07c-2.8,0-5.54,0-8.28,0
			c0,0.72,0,1.39,0,2.07C98.9,33.63,101.63,33.63,104.39,33.63z"/>
		<path d="M62.77,19.02c-1.36-0.06-2.75,0.01-4.08-0.22c-2.93-0.5-5.08-3.05-5.08-6.05c0-3.1,2.07-5.55,4.9-6.15
			c0.64-0.14,0.93-0.38,1.12-1.06c0.5-1.88,1.91-2.99,3.62-3.7c5.9-2.45,10.8,1.89,11.15,6.88c0.04,0.65,0.26,0.92,0.9,1.09
			c2.08,0.56,3.56,2.72,3.36,4.74c-0.24,2.39-1.94,4.14-4.25,4.36c-0.08,0.01-0.15,0.01-0.23,0.02c-1.38,0.25-2.54-0.05-3.39-1.25
			c-0.17-0.24-0.25-0.39-0.15-0.7c1.06-3.06-0.89-6.09-4.11-6.45c-2.55-0.28-4.97,1.76-5.15,4.32c-0.11,1.56,0.35,2.89,1.46,3.99
			C62.82,18.91,62.79,18.96,62.77,19.02z"/>
		<path d="M72.89,38.22c-2.88-0.07-5.1-1.81-5.71-4.25c-0.82-3.3,1.5-6.5,4.88-6.8c1.78-0.16,3.4,0.13,4.8,1.31
			c1.67,1.41,2.23,3.24,1.8,5.34c-0.42,2.04-1.73,3.34-3.67,4C74.32,38.04,73.59,38.09,72.89,38.22z M69.98,32.63
			c0,1.8,1.22,3.1,2.93,3.11c1.71,0,2.93-1.29,2.94-3.09c0-1.81-1.19-3.1-2.9-3.13C71.24,29.48,69.98,30.8,69.98,32.63z"/>
		<path d="M119.63,32.66c-0.02,2.68-1.85,4.84-4.49,5.32c-2.26,0.42-4.3-0.01-5.89-1.73c-2.79-3.02-1.16-8.07,2.86-8.94
			c2.44-0.53,4.61-0.07,6.32,1.87C119.29,30.17,119.64,31.36,119.63,32.66z M116.69,32.7c0-1.83-1.23-3.18-2.92-3.18
			c-1.67,0-2.96,1.34-2.97,3.1c-0.01,1.76,1.28,3.12,2.95,3.12C115.42,35.74,116.69,34.43,116.69,32.7z"/>
		<path d="M12.69,32.77c0.93,0,1.86,0,2.85,0c0,0.93,0,1.83,0,2.83c1.28-0.13,2.52,0.27,3.68-0.41c1.1-0.64,1.59-1.91,1.28-3.38
			c-0.24-1.14-1.27-2.05-2.47-2.1c-1.58-0.06-3.16-0.05-4.73-0.06c-0.2,0-0.41,0-0.67,0c0-0.73-0.01-1.4,0.01-2.06
			c0-0.1,0.21-0.27,0.32-0.27c2.07,0.03,4.17-0.13,6.2,0.18c2.56,0.39,4.31,2.12,4.38,5.04c0.05,2.47-1.18,4.37-3.92,5.13
			c-0.81,0.23-1.69,0.21-2.54,0.23c-1.33,0.04-2.66,0-4,0.01c-0.29,0-0.46-0.05-0.46-0.4c0.01-1.5,0.01-3.01,0.01-4.51
			C12.64,32.94,12.67,32.87,12.69,32.77z"/>
		<path d="M41.87,32.48c0.91,0,1.72,0,2.59,0c0,1.38,0.01,2.73-0.01,4.08c0,0.12-0.12,0.28-0.23,0.35
			c-2.23,1.46-5.77,1.82-8.07-0.04c-1.75-1.41-2.27-3.3-1.87-5.43c0.42-2.22,1.9-3.57,4.03-4.11c2.1-0.53,4.11-0.27,5.84,1.2
			c0.16,0.13,0.33,0.25,0.55,0.42c-0.68,0.62-1.27,1.15-1.87,1.7c-0.26-0.2-0.49-0.39-0.74-0.56c-1.45-0.99-3.47-0.68-4.45,0.63
			c-0.7,0.94-0.73,2.74-0.01,3.77c0.65,0.94,2.04,1.45,3.25,1.17c0.98-0.22,0.98-0.22,0.98-1.22
			C41.87,33.82,41.87,33.17,41.87,32.48z"/>
		<path d="M90.08,34.65c0.74,1.08,1.45,2.12,2.23,3.26c-1.06,0-1.98,0.01-2.91-0.01c-0.14,0-0.32-0.18-0.42-0.32
			c-0.41-0.57-0.83-1.14-1.18-1.75c-0.34-0.6-0.78-0.83-1.47-0.77c-0.8,0.07-0.8,0.02-0.8,0.82c0,0.55,0.02,1.11-0.01,1.66
			c-0.01,0.14-0.17,0.37-0.27,0.37c-0.85,0.03-1.7,0.02-2.58,0.02c0-1.71,0-3.34,0-5.03c0.25-0.01,0.49-0.03,0.73-0.03
			c1.46-0.03,2.93,0,4.39-0.1c0.96-0.06,1.41-0.64,1.41-1.53c0-0.86-0.44-1.42-1.36-1.52c-0.88-0.1-1.78-0.09-2.67-0.1
			c-0.81-0.01-1.63,0-2.49,0c0-0.78,0-1.5,0-2.29c1.62,0,3.21-0.04,4.8,0.02c0.75,0.03,1.52,0.16,2.22,0.41
			c2.5,0.89,3.29,4.02,1.52,5.98C90.91,34.06,90.49,34.32,90.08,34.65z"/>
		<path d="M58.18,37.92c0-0.27,0-0.47,0-0.68c0-2.34-0.01-4.69,0.01-7.03c0-0.46-0.11-0.64-0.6-0.62c-0.87,0.04-1.74,0.01-2.65,0.01
			c0-0.76,0-1.48,0-2.24c3.12,0,6.24,0,9.4,0c0,0.73,0,1.44,0,2.24c-1.07,0-2.12,0-3.2,0c-0.01,0.22-0.03,0.37-0.03,0.52
			c0,2.42-0.01,4.84,0.01,7.26c0,0.41-0.1,0.58-0.54,0.56C59.8,37.9,59.03,37.92,58.18,37.92z"/>
		<path d="M51.44,37.91c-0.89,0-1.76,0.02-2.62-0.02c-0.1,0-0.26-0.32-0.26-0.5c-0.02-1.43-0.01-2.85-0.01-4.28
			c0-1.71,0-3.43,0-5.14c0-0.2,0-0.41,0-0.64c0.99,0,1.92,0,2.9,0C51.44,30.85,51.44,34.35,51.44,37.91z"/>
		<path d="M27.45,27.33c0.93,0,1.84,0,2.82,0c0.01,0.19,0.03,0.37,0.03,0.55c0,3.14-0.01,6.29,0.01,9.43c0,0.46-0.11,0.65-0.6,0.62
			c-0.63-0.04-1.26-0.02-1.88-0.01c-0.31,0.01-0.44-0.08-0.44-0.42c0.01-3.33,0.01-6.67,0.01-10.01
			C27.39,27.46,27.41,27.43,27.45,27.33z"/>
		<path d="M66.14,11.72c2.68,0,4.43,2.87,3.17,5.24c-0.26,0.48-0.21,0.75,0.18,1.11c0.89,0.83,1.73,1.72,2.58,2.59
			c0.21,0.22,0.48,0.45,0.14,0.77c-0.3,0.29-0.55,0.1-0.78-0.13c-0.89-0.89-1.79-1.77-2.65-2.68c-0.3-0.32-0.51-0.36-0.91-0.14
			c-2.46,1.33-5.39-0.44-5.35-3.21C62.55,13.34,64.2,11.72,66.14,11.72z M66.13,17.98c1.52,0,2.7-1.15,2.71-2.64
			c0.01-1.47-1.21-2.7-2.68-2.7c-1.48-0.01-2.7,1.2-2.71,2.67C63.44,16.81,64.61,17.98,66.13,17.98z"/>
		<path d="M104.4,27.34c0,0.74,0,1.47,0,2.22c-2.77,0-5.5,0-8.29,0c0-0.73,0-1.46,0-2.22C98.88,27.34,101.62,27.34,104.4,27.34z"/>
		<path d="M104.39,37.89c-2.78,0-5.51,0-8.29,0c0-0.72,0-1.41,0-2.15c2.74,0,5.49,0,8.29,0C104.39,36.44,104.39,37.14,104.39,37.89z
			"/>
		<path d="M104.39,33.63c-2.76,0-5.49,0-8.28,0c0-0.68,0-1.35,0-2.07c2.74,0,5.48,0,8.28,0C104.39,32.23,104.39,32.92,104.39,33.63z
			"/>
		<path class="st0" d="M69.98,32.63c0-1.83,1.26-3.15,2.97-3.12c1.71,0.03,2.9,1.32,2.9,3.13c0,1.8-1.23,3.1-2.94,3.09
			C71.2,35.73,69.97,34.43,69.98,32.63z"/>
		<path class="st0" d="M116.69,32.7c0,1.74-1.27,3.04-2.95,3.04c-1.67,0-2.95-1.36-2.95-3.12c0.01-1.76,1.3-3.1,2.97-3.1
			C115.46,29.52,116.69,30.86,116.69,32.7z"/>
		<path class="st0" d="M66.13,17.98c-1.51,0-2.69-1.17-2.68-2.67c0.01-1.48,1.23-2.68,2.71-2.67c1.48,0.01,2.69,1.23,2.68,2.7
			C68.83,16.83,67.65,17.98,66.13,17.98z"/>
	</g>
</g>
</svg>
