<?xml version="1.0" standalone="no"?>
<!DOCTYPE svg PUBLIC "-//W3C//DTD SVG 20010904//EN"
 "http://www.w3.org/TR/2001/REC-SVG-20010904/DTD/svg10.dtd">
<svg version="1.0" xmlns="http://www.w3.org/2000/svg"
 width="490.000000pt" height="510.000000pt" viewBox="0 0 490.000000 510.000000"
 preserveAspectRatio="xMidYMid meet">

<g transform="translate(0.000000,510.000000) scale(0.100000,-0.100000)"
fill="#000000" stroke="none">
<path d="M505 4567 c-3 -7 -4 -584 -3 -1282 l3 -1270 38 -3 37 -3 0 1285 0
1286 -35 0 c-20 0 -38 -6 -40 -13z"/>
<path d="M854 4570 c-185 -57 -248 -295 -114 -428 55 -56 106 -76 185 -76 81
0 130 20 188 80 84 87 89 237 12 338 -54 70 -186 112 -271 86z"/>
<path d="M1260 3295 l0 -1285 35 0 35 0 0 1285 0 1285 -35 0 -35 0 0 -1285z"/>
<path d="M2030 4573 c0 -5 0 -582 0 -1283 l0 -1275 35 -3 35 -3 0 1285 0 1286
-35 0 c-19 0 -35 -3 -35 -7z"/>
<path d="M2800 3295 l0 -1285 35 0 35 0 0 1285 0 1285 -35 0 -35 0 0 -1285z"/>
<path d="M3570 3295 l0 -1285 35 0 35 0 0 1285 0 1285 -35 0 -35 0 0 -1285z"/>
<path d="M4320 3296 l0 -1286 40 0 40 0 -2 1283 -3 1282 -37 3 -38 3 0 -1285z"/>
<path d="M1645 4269 c-57 -9 -87 -23 -130 -61 -99 -86 -113 -245 -31 -353 85
-111 265 -127 374 -31 73 64 105 200 67 289 -46 110 -162 175 -280 156z"/>
<path d="M815 3946 c-93 -44 -145 -126 -145 -231 0 -146 109 -255 255 -255
224 0 336 255 189 429 -66 79 -200 104 -299 57z"/>
<path d="M2345 3946 c-95 -44 -145 -125 -145 -234 0 -80 24 -135 82 -187 54
-49 98 -66 172 -66 279 0 356 376 101 492 -58 27 -147 25 -210 -5z"/>
<path d="M1605 3657 c-150 -58 -216 -213 -151 -352 76 -164 288 -202 415 -74
49 49 71 103 71 180 0 114 -65 208 -169 244 -52 18 -123 18 -166 2z"/>
<path d="M3872 3404 c-187 -93 -189 -359 -3 -456 66 -35 162 -38 226 -9 51 23
118 96 136 147 17 51 16 140 -3 185 -58 136 -225 198 -356 133z"/>
<path d="M2393 3360 c-78 -18 -153 -86 -182 -163 -20 -54 -13 -148 15 -205 99
-199 395 -181 469 29 68 191 -106 386 -302 339z"/>
<path d="M3111 3104 c-112 -56 -168 -195 -126 -314 37 -105 130 -170 244 -170
106 1 192 54 232 145 48 108 29 209 -54 290 -83 81 -195 99 -296 49z"/>
<path d="M1575 3039 c-131 -65 -184 -222 -117 -350 100 -191 373 -184 461 11
28 62 28 155 0 215 -24 51 -85 110 -135 131 -50 21 -161 17 -209 -7z"/>
<path d="M3920 2821 c-69 -21 -131 -74 -166 -141 -27 -52 -26 -172 3 -226 31
-59 93 -110 154 -128 67 -20 94 -20 157 0 69 22 115 64 148 131 70 143 -1 314
-150 358 -53 16 -106 18 -146 6z"/>
<path d="M2355 2741 c-101 -46 -155 -129 -155 -240 0 -79 24 -134 82 -186 54
-50 95 -65 171 -65 76 0 123 18 176 65 85 77 106 219 47 319 -63 109 -211 158
-321 107z"/>
<path d="M3160 2521 c-69 -21 -131 -74 -166 -141 -28 -52 -26 -172 3 -226 42
-79 147 -144 233 -144 47 0 124 29 163 61 155 128 104 387 -87 444 -53 16
-106 18 -146 6z"/>
<path d="M500 1238 c0 -326 4 -507 11 -533 23 -83 143 -165 241 -165 l28 0 0
595 0 595 -140 0 -140 0 0 -492z"/>
<path d="M940 1133 l0 -598 135 0 135 0 0 253 c0 140 4 252 9 250 19 -7 99
-110 170 -218 128 -195 215 -263 360 -279 l71 -7 0 598 0 598 -135 0 -135 0
-2 -322 -3 -323 -51 85 c-29 47 -71 123 -94 170 -103 206 -169 295 -257 342
-43 24 -137 48 -185 48 -17 0 -18 -27 -18 -597z"/>
<path d="M2293 1715 c-82 -22 -133 -53 -193 -115 -130 -134 -153 -211 -148
-499 l3 -207 37 -75 c64 -128 175 -232 283 -265 34 -10 116 -14 303 -14 l257
-1 3 135 3 136 -238 0 c-220 0 -240 1 -280 21 -52 25 -93 81 -93 126 0 27 4
33 23 34 12 0 148 1 302 2 l280 2 3 138 3 137 -306 0 -305 0 0 33 c0 43 30 90
77 121 37 25 41 25 283 28 l245 3 3 138 3 137 -248 -1 c-181 0 -262 -4 -300
-14z"/>
<path d="M3275 1714 c-141 -34 -241 -140 -290 -307 -14 -47 -16 -97 -13 -300
l3 -244 44 -88 c77 -155 164 -217 328 -236 48 -5 207 -8 353 -7 l265 3 3 290
c2 160 0 309 -3 333 -4 27 -17 55 -35 75 l-28 32 -201 3 -202 3 3 -123 3 -123
118 -3 118 -3 -3 -102 -3 -102 -174 -3 c-160 -2 -177 -1 -218 19 -80 39 -90
66 -98 270 -4 123 -3 190 5 220 15 55 72 113 125 128 25 7 146 11 318 11 l277
0 0 135 0 135 -317 -1 c-240 0 -333 -4 -378 -15z"/>
<path d="M4120 1238 c0 -326 4 -507 11 -533 23 -83 143 -165 241 -165 l28 0 0
595 0 595 -140 0 -140 0 0 -492z"/>
</g>
</svg>
